<svg xmlns="http://www.w3.org/2000/svg" width="1080" height="1080" viewBox="0 0 1080 1080">
  <defs>
    <style>
      .cls-1, .cls-10, .cls-2, .cls-3, .cls-4, .cls-5, .cls-6, .cls-7, .cls-8, .cls-9 {
        fill-rule: evenodd;
      }

      .cls-2 {
        fill: #1e1814;
      }

      .cls-3 {
        fill: #5c4b31;
      }

      .cls-4 {
        fill: #75571d;
      }

      .cls-5 {
        fill: #a58548;
      }

      .cls-6 {
        fill: #deb764;
      }

      .cls-7 {
        fill: #f7ba64;
      }

      .cls-8 {
        fill: #fec983;
      }

      .cls-9 {
        fill: #ffdeb3;
      }

      .cls-10 {
        fill: #fff;
      }
    </style>
  </defs>
  <g id="Prancheta_2" data-name="Prancheta 2">
    <path id="Preenchimento_de_Cor_10" data-name="Preenchimento de Cor 10" class="cls-1" d="M1797-1l6,1c3.9,6.019,5.27,11.969,7,21,6.99,4.59,13.17,8,25,8V23h2v1c12.67,5.749,13.2,29.351,28,32,2.39-2.03,3.72-2.552,8-3,2.74,22.539,24.69,42.5,38,56-12.31,36.4,2.53,88.75,10,124,2.47,11.669-2.32,23.764-1,32l5,1c6.13-5.106,22.83-3,32-2l12,13c0.69,41.975-27.64,49.265-32,82,5.49,5.972,8.06,10.05,20,10,3.7-2.932,15.47-6.557,22-3,16.24,6.582,23.02,28.726,31,44,6.66,12.742,21.13,24.755,31,35-0.07,21.814-4.77,42.1-1,62,16.24,6.857,35.06,7.679,49,17,19.65,13.134,33.13,36.663,51,52q7.995,4,16,8c5.49,5.755,4.25,18.55,8,26,9.69,19.261,16.04,38.247,24,61,3.73,10.645,12.24,22.221,15,34v30q1.995,7,4,14v26q4.005,11,8,22v26c2.79,12.093,12.15,31.567,17,44,5.54,14.189,2.32,32.138,7,46,4.02,11.9,16.4,23.92,20,36v130q-355.965-.495-712-1c-4.71-10.46-7.15-20.13-4-35,0.74-3.5,3.62-10.04,2-16q-5.505-11-11-22c-5.66-13.986-7.53-30.573-12-44-3.49-10.5-2.79-37.861-14-40v2q-7.995,25-16,50c-7.84,17.865-16.51,38.81-23,58-3.31,9.79-9.26,42.75-16,47q-118.995.495-238,1c-1.46-87.8,23.74-142.123,40-212,3.54-15.237,23.81-69.455,21-80-1.89-7.785-7.5-7.918-9-16q8.505-17,17-34,4.005-5,8-10-1.005-10-2-20c2.63-9.575,9.36-15.681,10-30l-3-1h-6c-2.05,5.008-3.66,16.955-9,19v-2c-0.33-1.333-.67-2.667-1-4l-8-1v-3c-5.96-19.291,28.78-40.01,30-58-14.65-17.821,15.77-57.071,16-76,0.32-26.179-3.34-47.78-7-70q0.495-18,1-36c-5.94-28.5-1.81-67.807,1-100q5.505-5,11-10h20c6.29-9.486,9.85-22.253,18-30l22,1c5.35,2.007,10.18,7.21,14,11,5.22-1.821,7.59-6.569,12-8h22q4.005-3,8-6c6.22-1.96,14.33,1.232,18,2h22c11.51,2.664,22.6,10.764,30,18,9.28,0.1,36.45-16.78,39-22q0.495-11,1-22c-3.67-17.212-1.09-40.666-5-60-48.3-23.607-15.93-65.953-11-108l8-1c1.77-5.118-.46-10.635,6-12,4.49,2.121,22.84-4.51,25-9q1.005-6,2-12c7.06-5.335,17.77-6.116,26-11l6-8c8.63-8.494,18.72-14,28-22,3.83-3.3,6.57-9.381,11-12l24-6c10.44-6.508,10.08-22.758,26-24l8,1a25.588,25.588,0,0,0,4,6c19.71-5.932,23.54.628,40,6h28c8.67,2.856,11.42,11.061,24,9,0.33-2,.67-4,1-6C1798.95,7.343,1797.53,4.284,1797-1ZM1541,315c-6.24,5.547-16.6,8.731-18,19h2l28,1v-2C1548.26,326.613,1552.24,315.606,1541,315Zm-64,23c-2.65,3.5-5.2,7.354-8,11,1.08,4.665,1.89,6.3,6,8,3.43-5.439,6.26-8.755,12-12-0.67-1.333-1.33-2.667-2-4C1482.54,338.743,1481.77,338.334,1477,338Zm40,50c-10.55,25.281,10.51,50.317,6,73-2.84,14.275-14.39,19.824-16,36h2c10.32-7.079,21.53-4.2,36-9q16.005-5.5,32-11c5.88-1.69,22.38-2.461,24-8,1.01-3.447-9.4-27.041-11-34-14.27-6.539-34.03-7.15-47-15C1533.32,414.141,1522.6,389.789,1517,388Z" transform="translate(-1180)"/>
    <path id="Preenchimento_de_Cor_9" data-name="Preenchimento de Cor 9" class="cls-2" d="M1797-1l6,1c3.9,6.019,5.27,11.969,7,21,6.99,4.59,13.17,8,25,8V23h2v1c12.67,5.749,13.2,29.351,28,32,2.39-2.03,3.72-2.552,8-3,2.74,22.539,24.69,42.5,38,56-12.31,36.4,2.53,88.75,10,124,2.47,11.669-2.32,23.764-1,32l5,1c6.13-5.106,22.83-3,32-2l12,13c0.69,41.975-27.64,49.265-32,82,5.49,5.972,8.06,10.05,20,10,3.7-2.932,15.47-6.557,22-3,16.24,6.582,23.02,28.726,31,44,6.66,12.742,21.13,24.755,31,35-0.07,21.814-4.77,42.1-1,62,16.24,6.857,35.06,7.679,49,17,19.65,13.134,33.13,36.663,51,52q7.995,4,16,8c5.49,5.755,4.25,18.55,8,26,9.69,19.261,16.04,38.247,24,61,3.73,10.645,12.24,22.221,15,34v30q1.995,7,4,14v26q4.005,11,8,22v26c2.79,12.093,12.15,31.567,17,44,5.54,14.189,2.32,32.138,7,46,4.02,11.9,16.4,23.92,20,36v130q-355.965-.495-712-1c-0.33-.67-0.67-1.33-1-2h2q252.975-.495,506-1c0.33-1,.67-2,1-3-6.76-10.35-6.89-24.9-11-38-6.68-21.31-14.32-46.065-21-68q-4.5-19-9-38c-1.54,7.984-12.01,20.264-21,21v-2c-8.57-19.937,18.25-35.135,14-56-11.04-54.227-27.97-120.6-50-166-5.61-11.552-7.76-25.2-16-34-3.11,2.026-2.55-.528-6,0-1.62,1.971-2.08,3.071-3,7l-6,3v-2c-7.5,3.71-18.1-1.624-25-4-0.33,1.333-.67,2.667-1,4l-6-6c-0.61,6.045-2.1,7.991-9,8v-4c-2.32,2.3-3.03,2.1-7,3q-5.505-5-11-10c1.67-.333,3.33-0.667,5-1l-12-4c-0.17,2.5.11,2.242-1,5l-3-2v1c4.22,4,1.4,9.475,6,16h9l9,12c1.74-.758,1.83-2.656,3-1a11.578,11.578,0,0,0,3,2c-3.17,3.724-1.49,3.207-3,7-3.33,1.251-4.42,3-10,4-1.69-2.949-9.14-5.76-11-5h-1v4c-0.67-.667-1.33-1.333-2-2,0.22,2.953,1.75,2.315-1,4-2.8-2.067-3.52-1.485-7-2-0.79,4.4-1.83,8.851-5,11-1.42-.973-1.8-2.465-3-1-2.48,4.659-3.43,9.209-6,13h-2c-1.71-2.9-5.28-5.169-8-7-0.85,2.629.69,1.12-2,2-1.98-1.522-2.42-1.591-6-2-0.54,3.021-.63,3.251-2,5-5.3-5.356-12.46-8.883-17-15,3.55-3.842,3.04-9.147-2-15,3.31-1.734,2.68-1.26,3-6-2.47-1.981-.6.137-1-3,2.32-1.2,2.28-1.494,6-2,0.16-5.767,1.2-6.341,2-11-2.01-1.321-1.71-.81-3-3l3-1c-4.68-4.042-8.38-6.225-14-10,0.33-.667.67-1.333,1-2-2.51-.162-1.2.313-4-1-1.39,5.853-3.58,4.372-6,6v2h-1c-0.13-4.125.29-4.177-2-6-1.42,2.213.18,0.566-2,2-0.67-1.333-1.33-2.667-2-4,4.53-2.409,4.05-1.779,4-7-3.61-2.184-8.58-4.4-10-9a33.873,33.873,0,0,1,7-11l-4,1c-0.67-2-1.33-4-2-6,0.33-.333.67-0.667,1-1,6.48,0.454,9.88-2.841,15-6,1.56,2.6.35,3.168,3,2,5.01-5.85,21.99-8.523,26-6,0.67-2.333,1.33-4.667,2-7,2.67,1,5.33,2,8,3v-3c3.19,3.078,4.24,5.163,10,6,3.73-3.8,7.13-6.16,9-12-3.21-1.115-1.26.293-3-2,3.7-.7,2.19.287,4-2-0.33-1.667-.67-3.333-1-5-3.92-.623-12.24-3.65-13-5,9.76-2.637,28.34-13.059,32-22-2.77-1.751-2.53-2.34-7-3-17.92,16.619-66.7,26.65-100,20l-24-7c-20.32-2.31-36.38,1.969-50-8-18.72-13.707-28.95-43.677-43-62q-12.495-14.5-25-29c-4.08-6.417-7.5-19.375-14-23-3.7-2.066-15.74.846-19,3l17-2c1.62,2.422,4.02,4.732,3,7-13.03,17.075-41.4,16.134-67,21v3c4.58,0.587,12.37,3.174,14,7-3.18,3.613-1.48,5.6,0,10h-2c-6.57,0-10.71-.931-22-1v1c2.3,0.875,1.19,1.964,0,3v2h-1c-0.33-2-.67-4-1-6-0.33.333-.67,0.667-1,1,0.01,2.887.34,6.319-4,8-0.67-1.333-1.33-2.667-2-4,0.02,5.578-.07,3.943-1,9,3.16,3.5,6.37,7.077,7,13h-3v-2c-6.34,2.434-32-7.982-33-12,0.67-1.333,1.33-2.667,2-4h-1v2c-11.2,11.869-2.47,18.244-8,30-3.27,6.944-11.64,10.156-13,14l-2,8-3,3v-7c0.67-.667,1.33-1.333,2-2h-1c-2.51,1.891-1.27-.935-3,2-0.33,1.333-.67,2.667-1,4h-2v-2c-5.33,4.936-8.52,12.267-15,16-23.15,13.342-57.6,9.183-88,15l-6,10c6.25,14.674,8.14,21.5,8,44h1v-2c7.37-14.66-3.98-36.94-2-50,8.46-2.618,22.51-2.1,34-2l30-5c12.61-3.773,23.34-12.737,34-14,0.33,0.333.67,0.667,1,1-2.97,24.624-22.8,62.474-46,70-1.33,2.666-2.67,5.334-4,8h2c3.54-4.864,19.7-8.278,26-4,1.91,2.479,2.07,5.19,2,10-3.75,3.761-5.2,6.716-7,11,3.75-.576,8.61.78,11-4,0.33-1.333.67-2.667,1-4h1c0.44,7.529,2.63,6.847,7,10-8.11,6.154-13.57,30.991-15,40,0.77,2.031,5.49,5.88,4,12q-2.505,5-5,10c-3.79-.04-5.96,1.938-10,3-0.33-1.333-.67-2.667-1-4v2c-7.32,13.622-6.04,72.694-6,95l3,1,27,4c17.48,3.6,38.62,5.356,55,10,5.65,9.973,7.6,24.377,10,38-0.33,3-.67,6-1,9,0.73,1.3,5.07,2.216,6,4q4.005,19,8,38,9,31,18,62h-1v-2c-11.35-14.97-15.36-52.342-22-72-2.9-8.584-.06-22.149-10-24v2q-7.995,25-16,50c-7.84,17.865-16.51,38.81-23,58-3.31,9.79-9.26,42.75-16,47q-118.995.495-238,1c-1.46-87.8,23.74-142.123,40-212,3.54-15.237,23.81-69.455,21-80-1.89-7.785-7.5-7.918-9-16q8.505-17,17-34,4.005-5,8-10-1.005-10-2-20c2.63-9.575,9.36-15.681,10-30l-3-1h-6c-2.05,5.008-3.66,16.955-9,19v-2c-0.33-1.333-.67-2.667-1-4l-8-1v-3c-5.96-19.291,28.78-40.01,30-58-14.65-17.821,15.77-57.071,16-76,0.32-26.179-3.34-47.78-7-70q0.495-18,1-36c-5.94-28.5-1.81-67.807,1-100q5.505-5,11-10h20c6.29-9.486,9.85-22.253,18-30l22,1c5.35,2.007,10.18,7.21,14,11,5.22-1.821,7.59-6.569,12-8h22q4.005-3,8-6c6.22-1.96,14.33,1.232,18,2h22c11.51,2.664,22.6,10.764,30,18,9.28,0.1,36.45-16.78,39-22q0.495-11,1-22c-3.67-17.212-1.09-40.666-5-60-48.3-23.607-15.93-65.953-11-108l8-1c1.77-5.118-.46-10.635,6-12,4.49,2.121,22.84-4.51,25-9q1.005-6,2-12c7.06-5.335,17.77-6.116,26-11l6-8c8.63-8.494,18.72-14,28-22,3.83-3.3,6.57-9.381,11-12l24-6c10.44-6.508,10.08-22.758,26-24l8,1a25.588,25.588,0,0,0,4,6c19.71-5.932,23.54.628,40,6h28c8.67,2.856,11.42,11.061,24,9,0.33-2,.67-4,1-6C1798.95,7.343,1797.53,4.284,1797-1Zm29,84c-1.46,3.11-2.13,3.04-1,6,2.33,2.29,6.03,3.361,10,4,0.33-.333.67-0.667,1-1-0.33-1.666-.67-3.334-1-5-1.67-1-3.33-2-5-3Zm15,14c-3.37,3.021-5.91,5.73-9,9v9c2.1,1.1,1.9,1.305,5,2,3.57-2.875,9.76-2.494,15-4l3-8Q1848,101,1841,97Zm-148,4v2l4-1v-1h-4Zm7,2c-2.12,2.471-2.28,1.487-3,6,0.33,0.667.67,1.333,1,2l12,4v-4C1706.66,107.626,1704.63,105.31,1700,103Zm-59,8c-2.39,3.543-5.79,10.07-8,11-7.01,2.374-18.29.247-21,10,0.67,0.667,1.33,1.333,2,2h2c4.45-4.078,5.87-9.479,13-11,2.95,3.02,3.76,2.7,4,9,5.32,9.545,1.32,32.957,4,41h1c-0.25-4.648-.48-8,2-10,0.33-.333.67-0.667,1-1,0.97,2.03.91,1.5,2,3-1.95,2.138-2.37,6.544-3,10,2.22,1.281,1.65,1.01,3,3h2q4.005-4,8-8v-1c-3.7-.7-2.19.287-4-2-1.05-2.785-1.26-11.122-2-15,2.22-1.281,1.65-1.01,3-3,0.33,0.333.67,0.667,1,1,4.5,2.714,6.57,6.159,8,12h1v-3c-5.29-6.446-9.02-17.842-6-24-6.81-6.387-10.85-12.273-10-24h-3Zm36,0a11.648,11.648,0,0,0-2,3c5.24,12.064-3.7,29.911,9,38v-1c3.29-1.5,6.45-3.54,8-7,0.33-1.667.67-3.333,1-5-6.04-5.537-8.57-17.071-11-26C1680.33,112.333,1678.67,111.667,1677,111Zm63,2c0.33,2,.67,4,1,6q7.005,3.5,14,7v-6c-0.67-1.333-1.33-2.667-2-4C1747.37,116.51,1746.51,114.948,1740,113Zm-44,8c0.08,7.645,2.67,13.469,9,15,0.67-1,1.33-2,2-3C1705.47,126.661,1702,122.842,1696,121Zm-130,10c-1.1,2.1-1.3,1.9-2,5,0.33,0.667.67,1.333,1,2-3.66-.087-2.2-2.092-4,2l6,19h-1c-2.81-4.252-7.48-12.478-13-14-2.33,2.426-2.92,1.829-4,6,2.24,3.4-.21,4.642-1,11,5.75,1.627,4.88,5.965,9,8,5.5,2.711,10.81.53,15,4l6,14c3.9,4.612,9.71,8.648,14,13,13.13,1.531,33.18-5.781,37-15,2.1-6.021-.11-22.257-3-30-7.25,4.692-13.03,1.943-25,0-0.99-5.257-6.28-12.482-8-14-2.12,1.312-3.14,1.789-5,1-2.92-1.413-2.21-1.988-6-3-1.46,2.254-3.81,3.58-6,5C1574.9,137.955,1569.82,132.662,1566,131Zm84,0c0.33,1,.67,2,1,3h-1v-3Zm89,0c0.99,7.022,3.5,8.445,12,8,0.33-1,.67-2,1-3Q1745.505,133.5,1739,131Zm-65,19c-3.28,3.181-7.67.871-9,2-3.14,4.46-2.68,8.718-2,15,0.67,0.667,1.33,1.333,2,2,3.83-1.1,13.43-2.673,15-6,0.67-1,1.33-2,2-3-2.76-.454-1.64.128-2-5C1676.76,151.475,1679.45,150.867,1674,150Zm24,1v4c-0.33.333-.67,0.667-1,1-4.89-.718-9.96-0.384-15-3-0.33.667-.67,1.333-1,2,0.67,2,1.33,4,2,6,6.85-.917,14.4,3.523,19-2C1700.76,156.788,1700.88,153.773,1698,151Zm-131,8c0.33,0.667.67,1.333,1,2h-1v-2Zm77,3h2v1C1645.33,162.667,1644.67,162.333,1644,162Zm-59,3c2.21,1.419.57-.181,2,2,2.15,3.957.12,12.819-2,16-0.67-.333-1.33-0.667-2-1v-7C1584.98,172.145,1585.32,167.53,1585,165Zm11,21c5.18,1.459,12.6,1.381,13,11-3.12,1.617-6.47,2.093-12,2-3.24-3.083-5.12-3.128-6-9,0.67-1,1.33-2,2-3Zm-55,129c-6.24,5.547-16.6,8.731-18,19h2l28,1v-2c-3.52-4.326-3.37-12.59-6-18h-6Zm14,1c-2.45,2.841-2.94,3.172-3,9,3.96,3.1,4.01,5.395,11,6l40,9v-1C1587.68,331.491,1574.89,319.55,1555,316Zm167,6-15,2q-12.495,4.5-25,9c0.33,0.333.67,0.667,1,1,8.27,4.094,19.2.181,30-1C1714.53,331.243,1723.63,322.74,1722,322Zm-221,15c-1.28,2.465-1.67,2.836-2,7,10.74,8.658,13.73,23.735,21,36,15.97,26.945,43.53,57.689,87,47,8.72-11.885,29.42-38.9,17-61l13-1c0.67,0.333,1.33.667,2,1,14.09,44.447,39.3,75.073,99,75,15.85-.019,28.8-2.24,38-9,17.43-12.8,7.96-50.036,20-68q-7.005-5.5-14-11l-16-1c-15.14-3.739-39.61-13.561-60-10-14.25,2.489-45.16,13.837-57,12-27.31-4.238-74.72-25.493-101-13h1c4.53,3.3,12.94.053,16,5h1a45.823,45.823,0,0,1-5,9h2c3.91-3.483,9.28-7.653,15-9v2l-15,18h2q10.995-8,22-16v3c-7.92,5.612-14.83,14.671-20,23h2c5.4-6.72,17.91-17.7,27-20,1.33,1,2.67,2,4,3-0.67.333-1.33,0.667-2,1,6.81,2.308,9.59,10.178,14,15q-1.005,11-2,22c1.29,7.422,3.06,13.576,1,22-41.54,29.614-102.77-32.32-94-78,5.35,0,9.71-.851,13-3Zm-24,1c-2.65,3.5-5.2,7.354-8,11,1.08,4.665,1.89,6.3,6,8,3.43-5.439,6.26-8.755,12-12-0.67-1.333-1.33-2.667-2-4l-3-3h-5Zm85,3,4,1Zm5,1h2v1C1568.33,342.667,1567.67,342.333,1567,342Zm147,8h9v1c-10.36,14.788-13.35,29.289-20,49h2v-2c9.32-10.939,27.34-43.921,41-45,1.2,2.317,1.49,2.282,2,6-2.69,3.174-2.11,2.351-2,7,0.67,0.333,1.33.667,2,1,8.28,3.354,17.23,2.275,30,2,4.37,6.5,5.86,15.488,4,26-2.22,12.507,1.61,20.007-5,29-11.71,15.93-61.31,17.743-85,9-14.78-5.454-14.35-16.01-20-31-1.92-5.086-7.2-15.633-6-20,2.68-10.236,22.35-23.277,31-28v2c-4.95,3.614-7.72,9.806-11,15h1C1694.55,364.011,1706.08,359.352,1714,350Zm-28,3c2.21,1.419.57-.181,2,2-9.7,7.079-17.1,23.184-30,26v-4Q1672,365,1686,353Zm79,14-6-1c-2.2-3.515-3.52-4.271-4-10l5-1C1762.79,358.965,1764.59,360.083,1765,367Zm-96-11v2c-3.73,4.186-7.46,9.689-13,12v-1h-1c0.33-1,.67-2,1-3Q1662.5,361,1669,356Zm-74,3c-1.33,1.667-2.67,3.333-4,5h1c1.33-1.667,2.67-3.333,4-5h-1Zm-78,29c-10.55,25.281,10.51,50.317,6,73-2.84,14.275-14.39,19.824-16,36h2c10.32-7.079,21.53-4.2,36-9q16.005-5.5,32-11c5.88-1.69,22.38-2.461,24-8,1.01-3.447-9.4-27.041-11-34-14.27-6.539-34.03-7.15-47-15C1533.32,414.141,1522.6,389.789,1517,388Zm531,141c-1.87,5.328-1.29,12.851,2,16h1c2.23-2.368,10.14-10.607,13-15h-4Zm-517,20c3.18,4.119,2.03,4.809,2,9h-4c-0.67-.333-1.33-0.667-2-1-0.33-.667-0.67-1.333-1-2C1529.61,553.126,1529.38,552.834,1531,549Zm535,26-9,13c-0.67-.667-1.33-1.333-2-2v2c-1.12,2.917-6.66,21.828,0,28,3.35,4.156,9.13,7.846,12,12,10.02,14.5,10.49,53.579,17,74,12.06,37.823,32.64,73.4,52,105,5.61,9.153,20.81,47.357,28,51h21c14.11,6.526,30.76,3.521,42,11l-6-26q-4.005-8.5-8-17-0.495-15.5-1-31l-6-16c-2.48-9.261,1.09-21.639-3-29,0.32,5.489.98,13.532-2,16v-2c-1.41-.359-0.98.987-2-1-7.09-12.416,5.87-42.394,2-55-2.03-6.632-8.92-12.913-13-18-3.72.7-5.12-.639-9-2l-6,6c0.25-7.121-5.53-23.634-9-25-0.03,2.236.89,0.8-1,2-1.33-1.333-2.67-2.667-4-4,0.67-.333,1.33-0.667,2-1-3.15-1.36-2.6-.9-4-4,8.77-10.761,5.72-30.187,0-41a19.605,19.605,0,0,1-8-1v-2l3-2c-1.67-1-3.33-2-5-3v1c0.97,1.419,2.47,1.8,1,3-2.39,6.224-9.69,11.683-16,14v-4c-1.32,2.013-.81,1.707-3,3v-1c-0.33-.667-0.67-1.333-1-2h2c-0.33-.333-0.67-0.667-1-1-1.73-2.335.18-.841-3-2-0.54,1.307-.74.834-1,1l-6-5c-4.56,1.971-7.42-3.135-11-2-7.41,4.6-2.59,11.9-10,17-1.27-2.242-1.72-1.767-3-4-0.67-3-1.33-6-2-9l-6,1c-1.94-5.678-2.04-5.837-8-8-1.01-3.25-1.08-3.207-2-7,0.67,0.333,1.33.667,2,1-2.12-5.463-.56-4.067-4-9,1.17-3.619,3.05-15.947,3-21-0.33-.333-0.67-0.667-1-1Zm9,9v0Zm-763,14c4.79,8.549,18.92,11.92,21,18-22.37,14.915-32.65,37.153-48,59h1c8.91-9.79,13.75-22.269,22-33h1c2.15-2.447,14.39-17.1,16-18,5.34-2.99,6.64,2.024,10-3q1.995-5,4-10C1326.3,609.9,1319.82,603.732,1312,598Zm141,21c3.42,1.875,3.74,2.84,4,8h-2v-1c-2.25-2.721-2.34-1.3-3-5C1452.33,620.333,1452.67,619.667,1453,619Zm-28,7c-8.41,4.7-22.86,1.4-32,6,12.91,0.416,27.32-.618,35-6h-3Zm44,13c0.84,1.814,1.82,1.17,0,2v-2Zm631,2h2v2h-2v-2Zm-632,2c0.33,0.667.67,1.333,1,2h-1v-2Zm-8,5c1.46,1.417,1.01.764,2,3,2.72,4.17,6.71,17.472,2,24-1.18-9.776-5.04-15.176-8-22C1460.39,650.9,1458.56,652.235,1460,648Zm-172,8c-5.17,7.606-11.18,12.776-12,25h1C1278.34,671.227,1290.67,663.784,1288,656Zm147,0c5.61,1.61,6.34,3.5,6,11,2.41,4.427.14,10.292-1,14-0.33-.333-0.67-0.667-1-1C1434.57,673.487,1431.25,662.119,1435,656Zm722,9c0.33,0.667.67,1.333,1,2C2156.18,666.609,2155.28,665.363,2157,665Zm-790,3c-0.8,13.686-8.31,19.514-9,34h1c1.55-9.555,10.1-19.827,18-23v-1c-3.73-.506-5.01-0.963-7-3Zm-43,8c-2.72,12.618-1.83,13.722-7,21h2l11-3a27.318,27.318,0,0,0,2-18h-8Zm782,2v5h-1v-2C2105.33,680,2105.67,679,2106,678Zm-827,2c-0.67,1-1.33,2-2,3C1277.62,683.475,1281.54,679.521,1279,680Zm511,4c0.33,0.667.67,1.333,1,2C1789.18,685.609,1788.28,684.363,1790,684ZM1646,803v4l-3,1h-1c-3.55-4.237-1.07-8.856-3-11l-6-3,3-1c-1.33-.667-2.67-1.333-4-2,0.33-2,.67-4,1-6,5.68-.32,5.56-0.574,7-5a23.6,23.6,0,0,1-12-4c-4.62-5.583-5.05-6.837-7-14l4-1c1.11,3.213-.29,1.262,2,3,0.42-3.7.63-5.252,3-7v1h2c1.33-1.667,2.67-3.333,4-5-1.05-4.962-1.73-4.631-3-10,3.88-1.109,3.75-1.647,6-4,4.6,6.582,13.83,10.21,16,16,2.75-1.47.32-.607,3-1v-1s-0.09-.326,3-1c1.32,3.518,10.79,13.546,12,14,0.67-.333,1.33-0.667,2-1,1.52-2.379,1.71-5.263,4-7v1c2.47-2.116,1.49-2.277,6-3q1.995,4.5,4,9c2.67,1.613,11.21,5.967,17,6v-4h2c3.8,3.617,14.73-1.2,23-1v-4c0.67-.667,1.33-1.333,2-2,7.61,2.1,13.24,3.129,19,6l6-6c0.33,0.333.67,0.667,1,1,1.33,1.333,2.67,2.667,4,4,4.6-3.018,10.66-1.828,15,0,1.33-1,2.67-2,4-3,0.33,0.333.67,0.667,1,1,5.76,2.668,7.69,8.744,13,12v2a41.8,41.8,0,0,0,14,8c1.43-4.617,3.78-6.351,7-9,7.94,7.31,35.39-8.368,38-14,3.05,1.317,5,.856,9-2,0.67-1.333,1.33-2.667,2-4,1.67,2.277,2.46,1.9,6,3,0.93-2.485,2.93-6.479,5-8,10.18-5.119,47.59-18.623,50-28v-3c3.26,0.051,3.1.772,6-1,0.33-1,.67-2,1-3-2.29-1.126-2.57-.909-4-3,3.02-3.989.34-8.06,0-13h4c0.33-1.333.67-2.667,1-4-0.67-.667-1.33-1.333-2-2h3v1l6,7c-0.76,2.629-2,9-2,9,1.97,2.152,2.3,2.278,6,3,1.44-3.663-.61-1.521,3-3q5.505,12,11,24c-0.33,2.666-.67,5.334-1,8-0.67.333-1.33,0.667-2,1h-1c0.78,0.817,3.06,1.129,1,2-1.1,2.541-1.74,3.587-4,5-0.67-.333-1.33-0.667-2-1v-2c-0.67.333-1.33,0.667-2,1-0.04,7.725-2.73,11.292-6,16-2.79-2.916-10.83,3.611-11,10,0,0,.91,1.525,2,3h-2c2.27,2.253,3.57,2.629,5,6h-1c-2.09-2.7-2.77-3.2-7-4v1h1q8.505,8.5,17,17c-0.22,5.891-1.47,6.1-3,10,2.67,0.178,3.04-.43,5,3,0.33,2,.67,4,1,6-1.67,1-3.33,2-5,3h2c2.75,2.976,3.63,3.117,4,9-2.75,1.8-5.83,3.061-9,5h2c2.45,2.841,2.94,3.172,3,9-8.45,9.585-15.35,18.5-30,22-25.83,6.176-51.74-19.255-47-34,0.82-3.676,1.43-3.539,3-6-6.75-7,3.86-18.484-4-22-0.81,3.85-1.21,7.93-5,9-10.21-2.7-24.59,14.751-25,24-1.92-1.361-3.15-2.257-6-2-1.93,1.99-3.11,2.091-4,3,0.32,4.375-5.81,8.884-8,16-3.45-.357-2.14-0.678-5,1-0.33-1.333-.67-2.667-1-4-5.13,1.283-2.62,1.022-8,0-0.85,4.336-2.75,6.33-3,8,0.97,1.419,2.47,1.8,1,3-1.89,1.786-1.36,1.46-5,2-1.33-1.333-2.67-2.667-4-4,0.49,3.5.04,7.885-2,9h-4c-0.33.333-.67,0.667-1,1,0.33,2.666.67,5.334,1,8h-1c-0.67-.667-1.33-1.333-2-2v1c0.67,0.667,1.33,1.333,2,2-2.95,1.147-3.35,1.733-8,2-2.04-1.856-2.55-2.223-6-3-0.8,4.641-.43,5.087-4,6,0,0-13.43-4.654-17-5-0.9,3.975-1.38,4.039-4,6-2.33,1-4.67,2-7,3-0.67-1.667-1.33-3.333-2-5-4.18,2.9-8.98,2.85-9,6,1.54,2.389-5.01,1.015-2,3l6,7h-9c-5.93-2.481-5.43-7.647-10-11-0.33,1-.67,2-1,3-1.11-3.213.29-1.262-2-3v5c0.33,1.333.67,2.667,1,4h-2c-2.74-2.233-5.21-5.166-8-7-0.47,1.03.38,3.14-2,2v-1c-0.33-.667-0.67-1.333-1-2,5.16-1.639,6.51-2.368,12-4v-1c-5.07-1.12-3.61-1.653-6-5v2c-0.67,2-1.33,4-2,6-6.45.347-8.05-1.318-17-2-0.67-1-1.33-2-2-3,2.47-1.059,1.49-.961,3-4l-9-2q-2.505-4.5-5-9h-1c-3.53-4.51-5.02-11.985-6-17,2.67-1.948,3.04-2.055,4-6h-9v-3c3.07-2.677,4.27-5.882,3-8-3.32-1.783-4.28-.1-6-4,1.67-1,3.33-2,5-3-4.63-2.611-6.34-6.605-11-9v1h-1l3,5c-3.66,1.438-1.52-.61-3,3,1.67,0.333,3.33.667,5,1l-3,7-6-1c-0.33-1.667-.67-3.333-1-5,4.34-5.881,1.92-12.838,0-19,2.33-.185,1.72-0.868,3-5h1v5c1.67-.333,3.33-0.667,5-1,0.33-1,.67-2,1-3l3-9h-3c-1.42,2.213.18,0.566-2,2-1.42-3.03-.58-2.979-3-4-3.36,1.7-6.6,1.469-9,4-0.33,1.333-.67,2.667-1,4l6,2h-4Zm294-107h2v1C1941.33,696.667,1940.67,696.333,1940,696Zm-502,3c-0.33.667-.67,1.333-1,2A17.653,17.653,0,0,0,1438,699Zm479,0c1.46,1.417,1.01.764,2,3C1915.9,700.167,1917.49,701.935,1917,699Zm-484,5-4,1c-2.45,4.67-3.98,6.19-4,14h1c0.33-1,.67-2,1-3-0.08,4.715-1.05,4.349,1,6v-2C1430.98,716.673,1434.01,708.282,1433,704Zm316,3c4.43,1.566,5.47,3.589,6,9-0.33.333-.67,0.667-1,1h-2c-0.33-1-.67-2-1-3l-4,1v-3C1749.96,709.358,1748.92,710.932,1749,707Zm146,1h4c0.33,0.333.67,0.667,1,1v3l-3,1-5-2c0.33-.333.67-0.667,1-1C1893.67,709.333,1894.33,708.667,1895,708Zm-11,12h2v1C1885.33,720.667,1884.67,720.333,1884,720Zm-126,1c0.33,1,.67,2,1,3-1.33.667-2.67,1.333-4,2v-1C1756.95,723.429,1756.87,723.631,1758,721Zm126,1h2v1C1885.33,722.667,1884.67,722.333,1884,722Zm-270,3,3,1v1l-6,1v-2Zm145,13c2.74,2,2.98,5.084,4,6l-3,1c-0.33-.667-0.67-1.333-1-2v-5Zm3,10,3,1Zm19,5c0.33,0.667.67,1.333,1,2h-1v-2Zm-471,1c-6.68,7.4-22.07,11.462-24,23h2C1291.44,772.231,1311.36,755.051,1310,754Zm460,7,3,1Zm-205,36c6.49,0.279,14.23,2.934,15,6,1.99,2.928,1.39,5.592,3,9,0.67-.667,1.33-1.333,2-2v1c4.27,3.2,5.08,8.815,9,12h5c5.58,6.616,2.53,12.075,6,18,3.69,6.308,8.44,12.516,13,20,3.16,5.186,9.37,7.563,13,12,12.86,15.71,26.43,29.131,39,45l6-2c6.59,10.086,21.96,15.148,31,23,4.07,3.533,1.03,7.408,3,11,2.26,4.124,17,18.144,22,20v-1c-0.67-1.333-1.33-2.667-2-4,3.68-.109,7.07-0.683,12-1,1.9,5.021,3.97,4.554,7,6-1.37,3.249-1.05,1.177-1,5h-2c3.01,2.859,3.73,8.438,11,10,1.67-2.243,3.35-2.656,5-2,0.33,0.667.67,1.333,1,2,2.54-1.632,3.2-2.027,5-1q5.505,4,11,8c1.69,2.179,1.7,3.177,1,8,1.33,0.33,2.67.67,4,1-0.33,1-.67,2-1,3-2.33.33-4.67,0.67-7,1v5c-1,.67-2,1.33-3,2,1.31,2.01.99,5.82-1,7-3.12,2.64-7.11,6.55-11,8-0.95-4.13-2.06-5.32-4-8,4.35-.91,2.44.7,4-3-2.04-.92-0.75-0.52-1-2,1.1-2.16,1.7-2.24,3-4-1.92-2.09-3.43-5.34-1-10h-7c-3.61,5.97-8.66,10.99-12,12-2.27-3.09-5.33-2.62-10,0-1.26-4.73-1.08-4.81-7-5v-1c-4.26-4.45-1.68-7.29-4-12-5.11-10.354-21.29-18.99-33-24-0.33,1-.67,2-1,3v-2c-0.33.333-.67,0.667-1,1-1.68,1.975,1.11,2.4-2,4l-3-2c-0.36,2.855.55,0.549-2,3,2.34,1.81,1.25.316,2,4l-3,4c-5.93-5.732-6.6-11.4-16-12,0.11-5.92-3.91-5.131-6-11,5.64-5.849,3.17-8.019,5-15-3.84-2.249-7.23-4.343-12-7h1c2.06-1.813,3.39-2.649,5-5-19-7.315-24.26-18.974-38-29,1.64-1.055,3.84-1.514,2-3-7.49-12.018-21.8-16.614-32-26l3-1c-2.08-1.9-1.72-3.157-4-6h-2v2c-1.66,2.295,1.15,4.218-2,6-2.5-20.856-33.76-29.906-38-44l3-13c-4.31-1.506-8.57-4.463-10-9,1.93-2.045,1.87-2.761,2-7h-5v-3c3.18-3.717,2.98-6.081,6-10-2.91-1.019-6.25-1.655-8-4l7-1c0.79-6.37,2.78-10.425,6-16h2l3,3c-2.29,1.674-2.78,2.075-4,5h2l3-1C1556.92,784.714,1564.24,785.649,1565,797Zm-20-2c-0.67,1.333-1.33,2.667-2,4h3c0.33-1.333.67-2.667,1-4h-2Zm378,13c4.57,12.817-3.78,22.464-8,33h2c8.29-9.091,14.32-10.11,14-29-1.33-1.333-2.67-2.667-4-4v1c2.02,3.022,3,9.508,1,15h-1C1927.35,816.314,1926.72,811.473,1923,808Zm-285,5h3c0.67,1,1.33,2,2,3v1c-1.67.333-3.33,0.667-5,1v-5Zm-120,5h2v2h-2v-2Zm32,2,3,6c0.33-.333.67-0.667,1-1,0.67-1.333,1.33-2.667,2-4Zm-35,3,4,1c-0.67,1.667-1.33,3.333-2,5,1.67,1.333,3.33,2.667,5,4v1a30.957,30.957,0,0,0-4,2c-0.33-1.667-.67-3.333-1-5h-2v1c0.98,0.214.5,0.136,0,1-0.67,1.333-1.33,2.667-2,4v-1c-0.4-.718-3.05-8.716-4-11C1512.58,824.662,1513.05,824.515,1515,823Zm162,0c-2.32,2.313-3.52,1.424-5,5,0.67,2.333,1.33,4.667,2,7l3,1v-2c-1.07-1.91-1.52-2.77-1-4l6-3c-0.33-.333-0.67-0.667-1-1-0.33-1-.67-2-1-3h-3Zm214,1v6h2v-1C1892.33,827.333,1891.67,825.667,1891,824Zm-343,3v2h1v-2h-1Zm344,4v2h1v-2h-1Zm-239,2h2v1C1654.33,833.667,1653.67,833.333,1653,833Zm-138,1h2v1h-2v-1Zm7,0,3,1v1C1522.73,835.032,1523.42,835.448,1522,834Zm-7,2h2v1C1516.33,836.667,1515.67,836.333,1515,836Zm5,0v3h-1C1519.33,838,1519.67,837,1520,836Zm-8,3c0.33,0.667.67,1.333,1,2h-1v-2Zm16,3,3,1v1h-3v-2Zm691,11c2.36,2.548,3.3,4.578,4,9h-1c-2.9-3.15-2.43-3.1-6-6C2218.01,854.679,2217.71,855.19,2219,853Zm-418,1c0.67,0.667,1.33,1.333,2,2C1802.33,855.333,1801.67,854.667,1801,854Zm-87,18c0.33,1.333.67,2.667,1,4C1714.67,874.667,1714.33,873.333,1714,872Zm57,5c0.67,0.667,1.33,1.333,2,2C1772.33,878.333,1771.67,877.667,1771,877Zm19,0c0.33,1.333.67,2.667,1,4h-1c-0.67-.667-1.33-1.333-2-2C1790.21,877.581,1788.57,879.181,1790,877Zm-37,7,6,2c0.33,1.667.67,3.333,1,5h-3c-1.59-3.33-3.57-3.731-6-6C1751.67,884.667,1752.33,884.333,1753,884Zm-87,1c0.33,0.667.67,1.333,1,2,4.36,0,8.63,1.787,14,1,0.36,3.93,4.53,7.16,3,9-1.88,2.295-1.38,2.089-5,3-0.67-.333-1.33-0.667-2-1-4.8-2.631-9.54-8.153-12-13h1v-1Zm99,8h3c1.58,2.563,2.06,3.6,5,5v1c-4.38,1.587-2.88,2.611-5,6-2.87-3.466-8.21-3.687-11-7l7-1C1764.33,895.667,1764.67,894.333,1765,893Zm-2,1v2C1761.5,897.328,1763.04,894.825,1763,894Zm63,13c2.21,1.419.57-.181,2,2,0.33,0.333.67,0.667,1,1h-2v-1C1826.67,908.333,1826.33,907.667,1826,907Zm11,3c3.42,0.951,4.35,1.261,6,4h-1l-4,1C1837.67,913.333,1837.33,911.667,1837,910Zm-82,21h4v12c-1.33,1.333-2.67,2.667-4,4q-4.995-2.5-10-5c0.33-.667.67-1.333,1-2C1750.24,938.24,1752.73,934.678,1755,931Zm25,13c0.33,0.667.67,1.333,1,2h-1v-2Zm-14,3c3.58,1.38,4.58,2.469,6,6v1c-0.67,1.667-1.33,3.333-2,5-0.33-.333-0.67-0.667-1-1C1767.27,954.836,1766.07,948.32,1766,947Zm1,15c0.33,0.667.67,1.333,1,2h-1v-2Zm0,10v10c-5.21-5.688-12.34-8.8-19-13,0.33-1,.67-2,1-3,2.66-1.091,2.42-1.07,4-3,0.33,0.333.67,0.667,1,1C1758.91,966.754,1760.71,970.808,1767,972Zm-87,1v2h1C1680.67,974.333,1680.33,973.667,1680,973Zm4,4h2v1C1685.33,977.667,1684.67,977.333,1684,977Zm71,2h2v1C1756.33,979.667,1755.67,979.333,1755,979Zm-14,12v4h3C1742.91,992.337,1742.93,992.579,1741,991Zm-50,8-4-1h2c2.33-1.333,4.67-2.667,7-4,3.38,1.8,3.9,1.649,5,6-0.33.67-.67,1.33-1,2q-4.5,2-9,4v-7Zm76-5c-1.23,1.982-1.5,1.576-3,3,3.66,1.438,1.52-.61,3,3-1,.33-2,0.67-3,1h5C1770.18,996.528,1771.23,997.269,1767,994Zm19,2c0.33,1,.67,2,1,3h-1v-3Zm-117,2,9,3c0.33,1,.67,2,1,3-2.44,2.62-1.26,2.82-2,7h-1C1675.06,1004.17,1666.1,1005.33,1669,998Zm117,3,10,3q-4.005,4.5-8,9v3h2c0.66-4.62.9-5.64,5-7q3.495,6,7,12c-6.22-.62-9.65,1.76-15,2-3.91-7.72-6.65-5.85-6-17,3.14-.58,5.34-0.84,7-3C1785.29,1002.19,1784.76,1003.54,1786,1001Zm-2,5c0.67,0.33,1.33.67,2,1C1785.33,1006.67,1784.67,1006.33,1784,1006Zm0,2c0.67,0.33,1.33.67,2,1C1785.33,1008.67,1784.67,1008.33,1784,1008Zm0,4v2C1785.35,1012.52,1784.92,1013.78,1784,1012Zm-21,4c1.97,1.86,2.01,1.69,6,2v-1l-1-1h-5Zm272,2c1.86,1.97,1.69,2.01,2,6,3.52,6.7-3.58,23.49-7,28C2028.73,1039.04,2032.12,1028.73,2035,1018Zm-493,33q1.005,9.495,2,19h-1v-1C1540.1,1064.29,1541.3,1057.08,1542,1051Z" transform="translate(-1180)"/>
    <path id="Preenchimento_de_Cor_8" data-name="Preenchimento de Cor 8" class="cls-3" d="M1797-1l6,1c3.9,6.019,5.27,11.969,7,21,6.99,4.59,13.17,8,25,8V23h2v1c12.67,5.749,13.2,29.351,28,32,2.39-2.03,3.72-2.552,8-3,2.74,22.539,24.69,42.5,38,56-12.31,36.4,2.53,88.75,10,124,2.47,11.669-2.32,23.764-1,32l5,1c6.13-5.106,22.83-3,32-2l12,13c0.69,41.975-27.64,49.265-32,82,5.49,5.972,8.06,10.05,20,10,3.7-2.932,15.47-6.557,22-3,16.24,6.582,23.02,28.726,31,44,6.66,12.742,21.13,24.755,31,35-0.07,21.814-4.77,42.1-1,62,16.26,6.749,35.09,7.692,49,17,11.79,7.89,21,21.994,31,32,6.41,6.412,13.19,14.156,20,20q7.995,4,16,8c5.23,5.48,2.59,14.219,6,22,7.04,16.069,24.11,40.821,25,61h-1c-3.92-27.253-22.59-51.709-30-80-5.33-3.482-12.61-6.06-18-10-30.08-21.978-45.06-63.691-95-66-0.33.333-.67,0.667-1,1-3.24,32.865-5.39,78.216,5,103,6.34,15.115,20.27,24.121,26,40q4.995,25,10,50c9.56,29.829,25.9,58.825,41,84,7.28,12.14,31.26,65.63,40,70l25,1c24.9,4.692,46.56,6.692,46,37,2.94,4.914,1.78,9.493,4,16,4.06,11.914,16.32,23.919,20,36v130H1599c-13.47,0-42.93,4.35-52-2h476c9.69,0,28.18,2.37,33-3q-17.505-60.99-35-122-1.995-14-4-28c-31.95-112.906-48.44-211.435-111-294-11.04-14.573-24.35-26.742-35-41-5.14-6.882-7.84-18.259-18-20-20.1,33.269-61.2,33.859-104,25-6.72-1.391-12.55,1.924-17,3-17.85,4.312-37.22-1.6-47-9-15.23-11.535-19.6-30.414-30-47-8.88-14.162-23.41-23.762-33-37-6.02-8.307-9.7-24.312-19-29h-16c4.73-2.466,10.43-1.1,13-6,2.72-6.739-7.8-24.619-10-34-14.27-6.539-34.03-7.15-47-15-9.68-5.859-20.4-30.211-26-32-0.33,1-.67,2-1,3-10.23,21.145,11.06,49.843,7,70-2.87,14.264-14.41,19.826-16,36h2c5.9-4.525,25.86-12.406,36-8-13.41,1.962-31.2,7.034-41,14-6.83,4.849-8.58,16.618-13,24q-15.495,22.5-31,45c-5.36,8.164-7.9,21.7-16,27-20.48,13.395-61.81,11.028-89,15q-4.995,7.5-10,15c11.78,7.617,12.21,40.66,8,57h1v-2c10.81-13.615,1.2-63.2,6-66l35-1c21.05-4.174,43.02-8.253,56-17v7c-7.55,22.693-50.59,23.742-78,21v1h1c16.37,13.372,60.14-1.6,70-9v3l-6,18q-6.495,5.5-13,11-2.505,5-5,10c-3.06,3.681-6.12.66-11,3q-2.505,4-5,8c-6.21,5.375-25.77,2.531-33,1v-2c-2.22-4.156-.07-9.2,1-13l3-1h12l3,7c0.67-.333,1.33-0.667,2-1,0.77-2.3,1.58-3.72,1-5-1.73-2.335.18-.841-3-2l-15-2c-1.33-2.333-2.67-4.667-4-7h-1c-3,21.818-10.57,38-15,58l-5,2v1h4l4-1c5.44-12.732,14.11-37.175,37-31,5.16,1.392,7.96,8.118,15,7,6.8-1.08,14.06-10.441,20-9,2.33,1.822,1.83,1.881,2,6-17.09,15.518-11.05,7.471-35,6v2c5.85,3.437,20.21,4.031,25,9,8.85,14.161-6.64,39.809-10,49h1c2.13-2.935,2.26-3.345,7-4-0.68,35.541-6.74,70.755-7,110,2.77,1.751,2.53,2.34,7,3l23,3c17.4,3.666,38.32,5.713,55,10,12.06,20.141,4.58,52.413,1,75h1v-2l3-7h1v4c-6.84,9.395-6.97,22.524-12,34-9.75,22.261-19.57,48.44-28,72-3.62,10.1-2.75,27.79-11,33q-118.995.495-238,1c-1.46-87.8,23.74-142.123,40-212,3.54-15.237,23.81-69.455,21-80-1.89-7.785-7.5-7.918-9-16q8.505-17,17-34,4.005-5,8-10-1.005-8-2-16c4.4-1.375,5.5-2.811,7-7,0.33-.333.67-0.667,1-1h-2c-1.33.667-2.67,1.333-4,2v-2c5.96-6.012,4.48-16.212,9-24,0.25,3.506.6,4.96,2,7,0.64-10.04,2.65-16.1-1-24h-2v15h-1c-2.87-2.173-4.09-1.741-8-1-2.05,5.008-3.66,16.955-9,19v-2c-0.33-1.333-.67-2.667-1-4-5.06.014-6.05,0.066-8-3h8c10.65-13.583,32.25-53.592,46-60l7-1c3.73-3.1,6.88-10.593,8-16h-6c-10-6-19.2-5.966-25-16h-1v7c6.5,8.348,10.58,10.1,22,14v2c-28.35,10.511-32.25,46.98-54,64v-2c8.44-8.242,12.3-21,18-32h-2q-3.495,5-7,10h-1v-3c5.34-4.182,16.68-16.94,17-26-14.65-17.821,15.77-57.071,16-76,0.32-26.179-3.34-47.78-7-70q0.495-18,1-36c-5.94-28.5-1.81-67.807,1-100q5.505-5,11-10h20c6.29-9.486,9.85-22.253,18-30l22,1c5.35,2.007,10.18,7.21,14,11,5.22-1.821,7.59-6.569,12-8h22q4.005-3,8-6c6.22-1.96,14.33,1.232,18,2h22c11.51,2.664,22.6,10.764,30,18,9.28,0.1,36.45-16.78,39-22q0.495-11,1-22c-3.67-17.212-1.09-40.666-5-60-48.3-23.607-15.93-65.953-11-108l8-1c1.77-5.118-.46-10.635,6-12,4.49,2.121,22.84-4.51,25-9q1.005-6,2-12c7.06-5.335,17.77-6.116,26-11l6-8c8.63-8.494,18.72-14,28-22,3.83-3.3,6.57-9.381,11-12l24-6c10.44-6.508,10.08-22.758,26-24l8,1a25.588,25.588,0,0,0,4,6c19.71-5.932,23.54.628,40,6h28c8.67,2.856,11.42,11.061,24,9,0.33-2,.67-4,1-6C1798.95,7.343,1797.53,4.284,1797-1Zm-91,29a20.161,20.161,0,0,0,11,6c1.33-1,2.67-2,4-3Zm-69,36V78c-4.19,1.975-5.25,4.138-11,5-0.33-2.333-.67-4.667-1-7,2.48-2.891,3.55-5.932,4-11-0.67-.667-1.33-1.333-2-2l-3,1c-3.89,6.222-7.83,10.465-11,18,6.82,2.124,8.51,6.634,11,13-9,.618-14.14,3.455-23,3-0.33-2-.67-4-1-6,0.33-1,.67-2,1-3h-1c-2.66,4.739-4.67,6.031-9,9-1.11-3.213.29-1.262-2-3l-4,1q-3.495,4.5-7,9c0.33,1,.67,2,1,3,1.67,0.667,3.33,1.333,5,2h-1c-1.67,1-3.33,2-5,3v-1c-5.14-6.71.76-11.773,3-17h-1c-2,1.888-6.71,2.317-11,4q-4.005,7-8,14l-15,9v8l-9,22,3,13c1.48,8.03-4.21,16.264-7,21,4.01,0.78,4.01,1.635,7,3,0.83-4.8,1.61-5.757,6-7,0.96,5.256,4.02,7.977,8,10,1.54-5.43,4.84-5.983,10-5l3,10a15.746,15.746,0,0,0-4,6h5c0.67-.333,1.33-0.667,2-1,1.54-5.451,1.12-8.5,7-10,5.15,5.493,11.77,16.22,24,14,16.06-2.916,31.76-14.532,45-20q30.99-8.5,62-17,7.005-5,14-10c13.98-5.615,35.65-6.77,44-18,3.67-5.2,4.25-13.471,5-19-5.38-3.751-12.24-8.793-14-16-1.93-7.891,2.7-9.069-3-14h-1l-3,11h-2v-2c-2.85-7.921,7.6-20.824,4-33l-9-16c-0.33.333-.67,0.667-1,1-3.63,3.653-4.65,4.212-14,6-9.7-14.173-29.09-31.891-54-27-0.33,1.333-.67,2.667-1,4,5.69,7.165,16.25,7.443,22,14,4.79,5.46,3.28,15.372,10,19l12,1c10.23,2.365,13.85,9.694,20,16-0.09,8.812-4.7,14.547-11,17,0.03-4.261.31-5.154-2-7l-6,3c-1-3.684-4.11-11.84-7-14-7.42-4.081-37.14-6.371-39-13,1.33-1,2.67-2,4-3l3,1-6-5-9,12h-1c-3.04-10.457-11.98-2.4-18-4h2c3.37-3.47,5.88-6.1,7-12h-4c-1.52,2.574-2.3,6.843-4,10V70c-0.67-1.333-1.33-2.667-2-4C1642.89,65.827,1641.04,64.4,1637,64Zm141,48v14c5.92,3.337,12.77,4.63,14,13-0.33.667-.67,1.333-1,2l-3,1c18.38,3.015,31.69,18.546,36,35h1v-2c-0.33-.667-0.67-1.333-1-2,2.77-1.07,2.18-1.373,6-2,2.33,3.568,3.64,4.89,4,11l-4,1c-1.32-2.013-.81-1.707-3-3v1c2.7,3.463,3.64,7.043,8,9l3,1c1.75-1.656,2.66-1.708,4-4,3.22-6.011-.5-16.084-2-21l-6-2c-0.67.333-1.33,0.667-2,1v-4c2.57-2.718,1.82-3.427,3-6v1l6,6c1.66-2.584,3.3-3.053,4-4,2.3-3.926.85-5.477,6-7,4.11,5.218,10.89,20.389,18,22,0.67-1,1.33-2,2-3-5.32-8.274-2.86-20.707-7-31-2.34-5.822-10.59-8.145-15-12,0.33-.667.67-1.333,1-2,1.42-2.213-.18-0.566,2-2,8-3.41,15.17,7.536,19,12,0.67-.333,1.33-0.667,2-1,2.72-4.226.99-9.193,0-15h1c2.35,2.293,10.57,1.249,15,4,3.58,4.367,2.94,14.012,7,18h1c0.33-3.333.67-6.667,1-10-8.48-10.07-21.47-51.711-31-53q-0.495,6.5-1,13l3,2h-3c-15.27-7.939-30.51-13.263-44-23-11.53-8.325-16.71-29.764-35-31-1.2,2.317-1.49,2.282-2,6,2.33,1.333,4.67,2.667,7,4v1h-2q-7.005-2.5-14-5c-6.38-4-7.64-10.222-17-12-2.67,1-5.33,2-8,3v2c25.17,1.938,18.69,17.892,31,24V61c3.43-2.94,1.47-3.783,4-8,4.04,5.7,6.7,11.607,11,18,3.06,4.55,8.74,3.6,13,7,5.26,4.2,11.33,25.259,12,33-1.33,1-2.67,2-4,3-3.37-26.863-26.82-24.982-44-37-4.59-3.213-4.79-8.855-11-11-4.48,6.193-10.42,8.747-11,19l18,19,16,3-13,4v1h5ZM1650,39c-0.87,2.569-.63.809-4,3,3.85,0.563,3.24.9,6,2V39h-2Zm48,0,6,2c-0.33.333-.67,0.667-1,1v1l-4-1C1698.67,41,1698.33,40,1698,39Zm95,11h2C1793.52,51.346,1794.78,50.919,1793,50Zm-104,3c-1.1,2.1-1.3,1.9-2,5h4V56c0.33-1,.67-2,1-3h-3Zm29,68c6.7,1.349,12.05,3.608,13,11h-6C1721.41,129.37,1718.08,124.134,1718,121Zm149,21c0.97,2.27.55,1.577,2,3C1868.33,144,1867.67,143,1867,142Zm-48,8c3.45,1.823,3.11,2.767,3,8h-2c-2.49.571-2.66,0.693-5-1C1818.26,155.286,1818.14,153.924,1819,150Zm19,7c0.33,0.667.67,1.333,1,2h-1v-2Zm3,1c0.33,0.667.67,1.333,1,2h-1v-2Zm35,43c-1.1,8.425,1.47,9.668,4,16h1v-4c-0.33-3-.67-6-1-9-0.33-1-.67-2-1-3h-3Zm24,72c-10.3,6.8-20,11.048-27,21h1l30-20v-1h-4Zm-346,40c-2.05,2.255-2.81,2.5-4,6-0.33-.667-0.67-1.333-1-2-2.59-1.343-3.49-1.816-8-2-6.24,5.547-16.6,8.731-18,19h2l28,1v-2l-3-6h1c2.45,3.711,4.3,4.181,5,10h-2c-10.29,4.574-42.69-3.394-56,0-0.67,1-1.33,2-2,3,2.45,8.088,9.07,12.325,13,19,17.33,29.407,22.81,53.222,57,66,9.53,3.56,32.22,9.22,43,2,16.52-11.064,16.29-39.9,25-59,0.67,0.333,1.33.667,2,1,2.23,1.522,17.68,32.03,21,37,6.86,10.279,18.81,22.266,30,28,23.55,12.068,81.31,13.269,96-7,9.73-13.419,2.87-33.531,8-53,1.21-4.592,5.13-6.073,7-10q-6.495-7-13-14c-4.84-2.662-24.02-5.888-29-7-14.45-3.23-34.72,1.494-45-6,9.17-.821,15.54-10.62,17-17l-5-1c-17.4,8.121-45.28,2.619-54,19-0.33,1.333-.67,2.667-1,4h1c3.78-2.155,15.01-2.186,19,0-19.8,3.349-38.16,15.03-62,7-5.55-1.868-8.66-7.159-13-10C1599.59,330.221,1571.25,315.381,1554,313Zm-17,1c-8.58,7.3-22.42,14.468-34,18v1h3l12-3q7.995-6.5,16-13C1534.91,316.267,1539.91,315.181,1537,314Zm217,6c-6.85,4.108-14.27,9.3-21,12v1h8c5.36-4.342,11.86-7.973,17-12v-1h-4Zm-205,5c0.33,0.667.67,1.333,1,2h-1v-2Zm-72,13c-2.65,3.5-5.2,7.354-8,11,1.08,4.665,1.89,6.3,6,8,3.43-5.439,6.26-8.755,12-12-0.67-1.333-1.33-2.667-2-4C1482.54,338.743,1481.77,338.334,1477,338Zm51,3,9,1c6.36,3.131,3.12,9.326,11,11q6.495-3,13-6v1q-6.495,5-13,10c0.33,0.667.67,1.333,1,2,2.16,2.649,2.19,2.665,7,3q4.005-2,8-4v1c-4.43,2.7-6.76,3.685-7,11l4,1q4.995-3,10-6v1c-3.48,2.185-7.3,6.049-6,10,1.42,2.213-.18.566,2,2a12.65,12.65,0,0,0,6-2v2c-5.76,6.184,6.57,30.433,12,33l15,4c3.1-3.779,3.75-2.341,4-9v-2h2c2.09,3.268,2.9,4.027,3,10-0.67,1.333-1.33,2.667-2,4-37.2,13.271-60.87-7.41-77-34-4.76-7.85-13.07-19.416-8-31,3.41,1.907,13.28,14.281,17,11,4.45-1.366,4.68-1.373,5-7-2.66-3.449-2.81-8.174-5-10-3.33,3.061-11.65,3.164-18,3-1.5-2.584-2.24-3.182-3-7l6-1C1525.33,342.333,1526.67,341.667,1528,341Zm234,22c0.33,0.667.67,1.333,1,2h-1v-2Zm10,9h6c0.33,1,.67,2,1,3,4.91,8.122,2.43,38.751-2,46-10.74,17.549-61.84,20.164-84,9-10.85-5.463-19.07-24.033-18-38h5c2.14,1.815,22.06-15.47,24-17v2c-5.07,7.773-10.47,20.192-11,31,1.67,1.333,3.33,2.667,5,4,6.03-.256,10.25-2.759,13-2,1.33,0.667,2.67,1.333,4,2v-1c-3.62-7.823,3.96-16.195,8-20,14.29,7.043,21.8,24.592,42,25,2.97-2.263,3.61-.4,5-3-6.8-.6-14.06-5.516-17-10,4.46,1.169,11.76.269,17-3-7.86-4.4-5.68-14.113-4-24Zm-167,9c1.85,4.266-1.66,14.338-3,20l-5,1c-2.33-2.426-2.92-1.829-4-6C1599.25,392.338,1602.86,388.874,1605,381Zm0,29c0.33,1.333.67,2.667,1,4C1605.67,412.667,1605.33,411.333,1605,410Zm166,3v2h1C1771.67,414.333,1771.33,413.667,1771,413Zm-190,63,4,1Zm-4,1,4,1-23,6v-1h1Zm100,6c2.06,3.7,8.49,8.15,11,3Zm-122,1,3,1Zm-4,1,4,1c-3.99.659-7.2,2.11-10,1h2C1548.33,486.333,1549.67,485.667,1551,485Zm-232,83c-1.94,4.03-2.97,6.387-3,13,4.72,6.341,8.36,10.617,15,15q-5.505-8.5-11-17C1319.67,575.334,1319.33,571.666,1319,568Zm15,83c-8.67,13.455-17.26,31.616-21,50,0.33,0.333.67,0.667,1,1,3.99-2.145,9.44-3.5,17-5,4.78-10.062,10.15-33.074,8-45-0.33-.333-0.67-0.667-1-1h-4Zm3,12h-8v-1h1l6-7C1336.33,657.666,1336.67,660.334,1337,663Zm-59,2c0.33,0.667.67,1.333,1,2h-1v-2Zm909,2c4.7,7.666,9.78,18.044,11,28h-1C2195.08,684.016,2188.14,678.964,2187,667Zm-911,2c0.33,0.667.67,1.333,1,2h-1v-2Zm-2,6c0.33,0.667.67,1.333,1,2h-1v-2Zm-1,4c0.33,1,.67,2,1,3h-1v-3Zm-1,4c0.33,0.667.67,1.333,1,2h-1v-2Zm926,12c0.33,0.667.67,1.333,1,2h-1v-2Zm1,2c0.33,1,.67,2,1,3h-1v-3Zm1,3c1.79,1.888,1.46,1.357,2,5h-1C2200.67,703.333,2200.33,701.667,2200,700Zm2,5c0.33,1,.67,2,1,3h-1v-3Zm-856,13v2C1347.35,718.521,1346.92,719.776,1346,718Zm856,2v0Zm-872,10c-8.31,11.354-44.41,35.871-46,47,1.67,0.333,3.33.667,5,1,13.31-18.474,33.47-24.7,43-48h-2Zm873,5v0Zm1,4v0Zm1,6v0Zm1,4v0Zm-265,60,6,1c0.33,1.667.67,3.333,1,5-4.1,2.035-5.04.008-6,5,4.11,2.129,6.13,2.167,7,8-0.33.667-.67,1.333-1,2-4.29,1.033-5.79,2.014-8,5,5.02,1.156,5.01,1.98,5,8-5.63,6.4-10.61,14.487-19,18-19.24,8.054-48.97-1.389-51-20,2.32-1.2,2.28-1.494,6-2,0.33,0.333.67,0.667,1,1-4.26-4.611-9.12-2.4-10-11,3.27-1.441,4.59-1.335,6-5-3.57-1.575-3.75-.756-5-5q4.005-3.5,8-7c-2.79-.215-1.88,1.211-4-2-0.33-1-.67-2-1-3,11.49-16.321,33.94-37.716,58-20,5.57,4.1,10.28,6.98,11,16C1942.04,804.973,1941.83,804.514,1941,809Zm268-28c0.33,0.667.67,1.333,1,2h-1v-2Zm1,3c1.79,1.888,1.46,1.357,2,5h-1C2210.67,787.333,2210.33,785.667,2210,784Zm2,5c0.33,1,.67,2,1,3h-1v-3Zm1,4v0Zm1,4v0Zm-309,3c-8.1,7.312-16.74,11.656-17,27,3.64,6.882,4.02,11.014,9,16l3-1q4.005-10,8-20c-6.74.09-7.76-.469-8-7C1902.16,812.082,1906.08,802.4,1905,800Zm11,14h5c0.33,2.333.67,4.667,1,7l-12,24h4c16.16-10.546,28.01-26.78,9-45-0.67.333-1.33,0.667-2,1C1917.76,803.908,1916.29,808.1,1916,814Zm304,20c1.79,1.888,1.46,1.357,2,5h-1C2220.67,837.333,2220.33,835.667,2220,834Zm2,5v0Zm1,6c0.33,0.667.67,1.333,1,2h-1v-2Zm1,3c1.67,1.736,1.19.894,2,4h-1v-2C2224.67,849.333,2224.33,848.667,2224,848Zm2,5c1.67,2.189,2.28,3.272,1,6C2226.67,857,2226.33,855,2226,853Zm2,6v0Zm1,4c0.33,0.667.67,1.333,1,2h-1v-2Zm1,3c1.79,1.888,1.46,1.357,2,5h-1C2230.67,869.333,2230.33,867.667,2230,866Zm2,5c0.33,1,.67,2,1,3h-1v-3Zm-723,47c3.15,1.36,2.6.9,4,4-3.62-.726-3.18-0.736-6,1C1507.64,919.869,1507.89,920.1,1509,918Zm-3,6c1.66,3.4-.03,7.294-1,11h-1v-3C1504.67,929.334,1505.33,926.666,1506,924Zm9,6v0Zm1,4c0.33,1,.67,2,1,3h-1v-3Zm1,4c0.33,1,.67,2,1,3h-1v-3Zm1,4c0.33,1,.67,2,1,3h-1v-3Zm3,12c0.33,1,.67,2,1,3h-1v-3Zm1,4c0.33,1,.67,2,1,3h-1v-3Zm5,19c0.33,0.667.67,1.333,1,2h-1v-2Zm1,4c0.33,0.667.67,1.333,1,2h-1v-2Zm1,4c0.33,0.667.67,1.333,1,2h-1v-2Zm1,3c0.33,1,.67,2,1,3h-1v-3Zm1,3c0.33,0.667.67,1.333,1,2h-1v-2Zm1,3c0.33,1,.67,2,1,3h-1v-3Zm1,4c0.33,1,.67,2,1,3h-1v-3Zm1,4c0.33,1,.67,2,1,3h-1v-3Zm3,9c0.33,0.67.67,1.33,1,2h-1v-2Zm4,47v0Zm1,9c0.33,0.67.67,1.33,1,2h-1v-2Z" transform="translate(-1180)"/>
    <path id="Preenchimento_de_Cor_7" data-name="Preenchimento de Cor 7" class="cls-4" d="M1797-1l6,1c3.9,6.019,5.27,11.969,7,21,6.99,4.59,13.17,8,25,8V23h2v1c12.67,5.749,13.2,29.351,28,32,2.39-2.03,3.72-2.552,8-3,2.74,22.539,24.69,42.5,38,56-12.31,36.4,2.53,88.75,10,124,2.47,11.669-2.32,23.764-1,32l5,1c6.13-5.106,22.83-3,32-2l12,13c0.69,41.975-27.64,49.265-32,82,5.49,5.972,8.06,10.05,20,10,3.7-2.932,15.47-6.557,22-3,16.24,6.582,23.02,28.726,31,44,6.66,12.742,21.13,24.755,31,35-0.07,21.814-4.77,42.1-1,62l9,3-7,1c-5.83,13.394-3.67,76.379,0,91,5.6,22.313,21.35,31.761,29,50,7.96,18.975,6.6,43.521,14,62,13.19,32.967,30.3,65.016,48,94,6.99,11.448,20.47,48.186,31,53h22c24.73,4.552,49.57,6.184,49,36,2.94,4.914,1.78,9.493,4,16,4.06,11.914,16.32,23.919,20,36v130q-354.96-.495-710-1,253.47-.495,507-1c0.33-1,.67-2,1-3q-18-62.49-36-125-1.995-15-4-30c-16.36-58.326-26.92-123.726-49-179-14.14-35.387-31.05-71.4-52-101-11.07-15.642-26.47-28.218-38-43-8.26-10.592-14.57-22.623-24-32-0.33.333-.67,0.667-1,1-11.45,3.879-18.72,15.957-31,21-18.64,7.653-43.53,4.56-66,3l-22,6c-19.72,5.966-39.8-1.331-51-10-13.42-10.39-16.87-28.072-26-43-8.79-14.37-23.37-23.731-33-37-6.34-8.738-10.85-26.481-21-31l-6-2c3.56-1.682,3.57-2.173,4-7-5.79-7.961-8.67-18.748-11-30-14.27-6.539-34.03-7.15-47-15-9.68-5.859-20.4-30.211-26-32-0.33,1-.67,2-1,3-10.23,21.145,11.06,49.843,7,70-2.87,14.264-14.41,19.826-16,36h2c7.27-5.447,16.22-8.068,29-8v1c-11.37,1.671-26.66,6.063-35,12-7.41,5.274-10.09,20.154-15,28q-15,21.5-30,43-4.995,10.5-10,21c-11.34,15.784-72.08,17.242-94,19-5.79,9.521-13.12,12.634-19,17h1c3.86,3.145,10.74,3.179,14,7,10.11,15.843-2.16,53.934-3,68,0.33,0.333.67,0.667,1,1,0.67-.333,1.33-0.667,2-1,3.32-6.819,13.43-42.984,12-52-1.54-9.724-5.15-25.88-4-34,6.08-1.408,28.05-3,35-1,20.56-5.238,42.47-6.8,56-15v4c-8.68,23.784-62.59,26.607-86,15v1c0.33,0.333.67,0.667,1,1,21.21,12.219,54.67,14.412,77,0v3q-2.505,7-5,14-7.005,6-14,12c-2.28,3.3-2.15,6.411-5,9-2.43,1.487-6.83.194-10,2-2.02,1.152-6,8.058-8,10-10.27.256-18.2,0.873-27-1V661c3.6-2.124,5.57-3.006,12-3,1.58,2.949,3.1,7.172,6,9h3l3-9c-3.13-1.994-3.43-2.753-9-3l-13-2-3-14v2c-4.11,8.215-2.54,17.771-5,28-2.9,12.045-7.69,23.469-12,36-6.98,2.885-10.24,4.634-10,15,2.22,5.762-1.55,19.521,2,26,0.48-9.158,1.47-19.97,5-26,0.33,0.333.67,0.667,1,1,2.65,2.164,2.66,2.189,3,7q-1.005,6-2,12h2l3-2c0.33-1.667.67-3.333,1-5-1.85-3.221-2.06-7.806-2-13-3.98-1.553-8.04-2.13-10-6h1c2.72-5.205,8.66-2.79,12-7,10.04-17.371,6.96-16.191,22-29,13.57,0.117,23.49,8.062,29,7,7.49-1.446,11.77-7.671,20-9v4c-6.07,5.572-5.33,10.2-18,10-4.08-2.831-9.17-3.929-16-4-0.33,1.333-.67,2.667-1,4,6.14,3.8,15.52,5.217,24,7,1.86,3.607,2.15,8.79,2,15q-1.005,10-2,20c-1.98,7-8.03,6.911-9,16h2a33.182,33.182,0,0,1,6-4v4q-1.5,15.5-3,31c-4.09,22.809-4,48.43-4,75,2.77,1.751,2.53,2.34,7,3l24,3c17.18,3.617,37.97,5.462,54,10,18.71,39.09-11.55,94.7-17,125h1v-2q2.505-5,5-10v4q-11.505,30.99-23,62c-2.72,9.18-2.81,24.47-10,29q-118.995.495-238,1c-1.46-87.8,23.74-142.123,40-212,3.54-15.237,23.81-69.455,21-80-1.89-7.785-7.5-7.918-9-16q8.505-17,17-34,4.005-5,8-10-1.005-7.5-2-15c20.45-4.6,12.3-40.684,15-58l6-3h1c-2.06,2.686-4.17,3.9-6,7h1c9.75-8.3,17.39-15.976,22-24h-1a49.746,49.746,0,0,1-9,11h-8v-2c7.92-4.447,10.51-15.324,20-17,1.91,1.071,2.77,1.515,4,1l9-18c-0.33-.333-0.67-0.667-1-1-13.29-.376-24.57-6.554-31-14-2.92-3.378,1.75-3.2-2-5-0.67,1.333-1.33,2.667-2,4-1.02,2.119-.65,11.117,1,14,1.78,5.63,5.31,7.455,9,11,4.24-1.763,6.66-2.86,13-3v1c-13.67,2.713-19.62,16.741-31,23v-2c5.34-5.8-2.48-26.46,2-40,3.74-11.324,14.21-27.9,17-38,5.16-18.661-4.39-62.175-7-78q0.495-18,1-36c-6.01-28.562-1.61-67.746,1-100q5.505-5,11-10h20c6.29-9.486,9.85-22.253,18-30l22,1c5.35,2.007,10.18,7.21,14,11,5.23-1.813,7.59-6.565,12-8h22q4.005-3,8-6l44,3c9.62,3.432,16.28,11.652,24,16l10,2h-2c-8,6.247-21.85,6.844-23,20,12.42,8.584,14.1,21.749,22,35,13.23,22.2,24.95,37.1,51,47,12.17,4.623,36.07,8.711,46-1,13.84-13.536,14.71-35.446,24-54v1c21.78,37.774,43.6,84.188,113,70,10.95-2.238,19.59-2.58,27-8,17.8-13.011,7.93-35.011,15-60q3.495-4.5,7-9c-1.42-4.208-16.86-13.693-11-24,1.87-5.112,4.04-5.2,8-8-8.13-3.991-12.41-7.9-25-8l-3,3c-0.67,2.333-1.33,4.667-2,7h3a25.633,25.633,0,0,1,13-4v1c-3.04,1.094-2.43.5-4,3,4.93-1.689,6.87-.145,8,5-0.67,1.333-1.33,2.667-2,4-0.33-.333-0.67-0.667-1-1-9.35,1.567-29.34-4.8-46-5v-1h1c10.51-6.1,20.5-6.748,24-20h-6c-7.21,4-21.91,12.985-29,14,0.45-3.611,3.88-9.373,3-10-1.93-3.624-4.41-3.3-10-3-22.66,11.032-57.18,2.1-61,29-16.42,9.056-33.23-2.625-43-9-12.38-8.074-49.55-26.346-64-26l-3,5c-2.67-1-5.33-2-8-3h1c2.91-2.743,5.54-3.589,7-8h-1q-10.005,6-20,12v-2c5.24-2.367,19.42-9.754,22-15q0.495-11,1-22c-3.67-17.212-1.09-40.666-5-60-48.3-23.607-15.93-65.953-11-108l8-1c1.77-5.118-.46-10.635,6-12,4.49,2.121,22.84-4.51,25-9q1.005-6,2-12c7.06-5.335,17.77-6.116,26-11l6-8c8.63-8.494,18.72-14,28-22,3.83-3.3,6.57-9.381,11-12l24-6c10.44-6.508,10.08-22.758,26-24l8,1a25.588,25.588,0,0,0,4,6c19.71-5.932,23.54.628,40,6h28c8.67,2.856,11.42,11.061,24,9,0.33-2,.67-4,1-6C1798.95,7.343,1797.53,4.284,1797-1Zm-58,13c-13.3,7.145-30.81,6.855-45,5-2.22,3.246-2.92,4.3-8,5l-3-6v2c-9.29,7.331-27.17,3.631-38,11-7.47,5.082-7.72,15.891-14,22-14.9,8.608-38.36,19.087-46,34-0.67-.333-1.33-0.667-2-1-2.76-3.211-2-5.92,0-9h-3c-1.53,4.92-2.77,11.79-4,18-12.96,5.809-8.92,11.263-17,18-3.17,2.639-12.78,4.808-15,8v6q-4.995,13.5-10,27c-2.65,10.955,9.56,27.006-7,30-0.92-2.038-.52-0.753-2-1-0.33,2.666-.67,5.334-1,8,0.33,0.333.67,0.667,1,1,11.92-.279,8.48,3.274,16,8,0.45-4.565,1.32-5.173,3-8,0.67,0.333,1.33.667,2,1,8.62,5.186.72,14.781,16,15,11.45-5.21,25.98,4.867,39,2,8.44-1.857,15.61-4.112,26-7q10.995-6.5,22-13l47-12c13.85-4.905,23.09-10.752,38-16,12.44-4.377,35.32-15.068,53-9,24.5,8.41,29.52,29.5,41,51,0.67-.333,1.33-0.667,2-1,14.66-3.985,44.25-24.7,58-33,5.59-3.377,11.35.795,15-4,1.96-3.039,1.82-31.059,0-39-2.49-10.862-20.16-45.9-28-51-4.68-3.046-9.62-2.856-13-7-7.07-8.65-8.92-19.03-25-19-0.33,1-.67,2-1,3-0.03,2.4-.07,2.007,1,5-3.64.367-7.34,1.816-13,0v1l9,10h-4c-8.23-5.959-14.6-13.369-21-21h11V40c-3.12-3.761-2.62-6.041-9-7-9.15-5.818-24.62.113-36-3-2.55-6.529-2.13-12.966-12-13-1.98,1.522-2.42,1.591-6,2C1752.83,12.647,1745.47,14.5,1739,12Zm99,44h4c4.93,7.15,10.45,11.01,13,21h-1V76C1848.75,68.9,1844.72,61.606,1838,56Zm-8,7h2v1C1831.33,63.667,1830.67,63.333,1830,63Zm-294,62-3,1-3,5c-4.01,5.827-.32,18.711,3,24q-1.005-9.5-2-19C1531.94,131.735,1535.69,126.313,1536,125Zm-5,36c0.33,1,.67,2,1,3C1531.67,163,1531.33,162,1531,161Zm0,5c0.33,1.667.67,3.333,1,5h1C1532.33,169.333,1531.67,167.667,1531,166Zm372,11c-10.7,8.021-25.63,10.748-35,20v14c8.11,7.344,18.02,19.99,23,30h1v-2c-3.82-7.438-8.84-35.76-4-45,0.78,13.482,8.11,18.121,11,28,4.88,16.668,2.4,45.606,16,50v-2c4.49-7.506,6-28.93,1-37-1.87-3.018-7.76-6.229-9-10C1902.59,209.649,1917.77,190.366,1903,177Zm-344,13c2.84,1.425,1.54.2,3,3,0.33,1,.67,2,1,3l-4,1v-7Zm15,13c0.33-2.666.67-5.334,1-8h2c1.75,2.769,2.34,2.529,3,7Zm284,5-3,1c-4.16,4.916-7.49,6.965-8,16,3.96,4.492,4.78,5.538,9,9-0.38-10.075,4.94-12.954,5-26h-3Zm49,21c5.71,5.746,3.34,19.53,3,31h-1v-2C1902.47,248,1906.51,241.368,1907,229Zm-5,40c-17.63,13.416-26.43,14.993-39,35h1c10.61-11.389,40.26-14.9,42-34-0.33-.333-0.67-0.667-1-1h-3Zm-363,46h2v1h-2v-1Zm-3,2h2v1C1537.33,317.667,1536.67,317.333,1536,317Zm-10,1h2v1C1527.33,318.667,1526.67,318.333,1526,318Zm7,1h2c-0.33.667-.67,1.333-1,2C1531.76,321.02,1532.64,321.206,1533,319Zm-14,3h2v1C1520.33,322.667,1519.67,322.333,1519,322Zm10,0h2c-0.33.333-.67,0.667-1,1C1528.91,323.9,1529.48,322.59,1529,322Zm-2,2c0.33,0.667.67,1.333,1,2C1526.18,325.609,1525.28,324.363,1527,324Zm-3,2c2.21,1.419.57-.181,2,2-4.02,2.305-2.94,3.907-1,7h-11c-2.33-.667-4.67-1.333-7-2h2C1515.68,329.917,1519.95,331.468,1524,326Zm28,5c1.69,1.663,2.99,2.325,2,4-1.74,1.672-.89,1.193-4,2l-12-2h15v-2C1552.67,332.333,1552.33,331.667,1552,331Zm-75,7c-2.65,3.5-5.2,7.354-8,11,1.08,4.665,1.89,6.3,6,8,3.43-5.439,6.26-8.755,12-12-0.67-1.333-1.33-2.667-2-4l-3-3h-5Zm49,5h10c0.67,0.667,1.33,1.333,2,2-0.33,1-.67,2-1,3h-6c-3.05,1.644-7.43,1.327-10,1-0.67-1-1.33-2-2-3v-1h2C1522.67,344.333,1524.33,343.667,1526,343Zm3,34c11.18,9.441,19.76,12.2,38,16,6.05,9.014,11.17,17.759,19,25l16,2h-2C1570.55,436.131,1532.46,396.9,1529,377Zm245,2c4.06,2.773,3.29,9.827,2,15l-5,1c-1.1-2.1-1.3-1.9-2-5A74.373,74.373,0,0,0,1774,379Zm-53,18c5.38,0.217,11.68,2.6,14,6l-11,1q3.495,3.5,7,7c-1.85,3.982-3.03,3.425-2,5,7.68,6.684,33.73,10.935,44,5v2c-16.15,12.07-50.36,18.471-72,5h1c1.85-1.113,7.46-5.269,14-6,7.82,5.343,26.41,7.334,38,5v-1c-11.4.415-29.82-.717-34-8-2.51-3.681-3.06-8.67-3-15C1718.33,401,1719.67,399,1721,397Zm-271,12q-9.495,8.5-19,17h2c5.39-4.416,19.78-7.393,28-8,0.67,0.667,1.33,1.333,2,2-0.67-2-1.33-4-2-6Q1455.5,411.5,1450,409Zm457,36-3,2c13.13,1.726,13.52,13.867,21,21,0.33,0.333.67,0.667,1,1v-2C1920.43,456.746,1920.73,446.967,1907,445Zm-316,28,4,1Zm-4,1,3,1Zm59,3c-4.64,4.143-14.76,6.681-18,12-0.33,1-.67,2-1,3,7.99,3.682,12.22,9.153,22,12v-1c-4.21-2.391-8.55-4.869-12-8v-2l5-1c3.5,2.216,8.38,3.81,15,4,5.08-5.588,9.13-6.535,10-17-0.33-.333-0.67-0.667-1-1C1656.89,481.744,1656.52,477.83,1646,477Zm27,2c0.03,5.365.93,7.283,2,11l11,1c7.79,2.874,25.03-.226,32-2l20,4v-1C1724.59,482.443,1696.06,478.894,1673,479Zm-104,0h2v1C1570.33,479.667,1569.67,479.333,1569,479Zm-4,1h2v1C1566.33,480.667,1565.67,480.333,1565,480Zm-6,2h2v1C1560.33,482.667,1559.67,482.333,1559,482Zm491,28,3,1h-3v-1Zm4,1,3,1Zm4,1,3,1Zm5,2h2v1C2064.33,514.667,2063.67,514.333,2063,514Zm2,1h2v1h-2v-1Zm10,4h2v1C2076.33,519.667,2075.67,519.333,2075,519Zm3,1,3,1Zm3,1h2v1C2082.33,521.667,2081.67,521.333,2081,521Zm2,1h2v1C2084.33,522.667,2083.67,522.333,2083,522Zm2,1h2v1C2086.33,523.667,2085.67,523.333,2085,523Zm2,1,3,1v1C2087.73,525.032,2088.42,525.448,2087,524Zm-766,40c-3.02,4.71-6.12,6.889-7,14,6.6,9.981,11.4,16.273,21,23v-2q-7.005-10.5-14-21V564Zm812,4c0.33,0.667.67,1.333,1,2h-1v-2Zm1,2h2C2134.52,571.346,2135.78,570.919,2134,570Zm2,2h2C2136.52,573.346,2137.78,572.919,2136,572Zm2,2h2C2138.52,575.346,2139.78,574.919,2138,574Zm11,6h2v1C2150.33,580.667,2149.67,580.333,2149,580Zm10,11c0.33,1,.67,2,1,3h-1v-3Zm1,4v0Zm13,32c0.33,0.667.67,1.333,1,2h-1v-2Zm4,12c0.33,0.667.67,1.333,1,2h-1v-2Zm-880,1h2c-0.33.333-.67,0.667-1,1q-4.005,4-8,8v-2C1292.4,644.372,1294.38,642.4,1297,640Zm3,3c0.12,2.931-3.8,11.049-7,14-0.33.333-.67,0.667-1,1v-2Q1296.005,649.5,1300,643Zm33,6c-11.86,19.476-20.89,39.082-21,71h2l3-16c3.78-1.713,9.18-2.5,14-4,6.36-10.926,9.9-33.4,10-49l-3-1C1336.33,649.667,1334.67,649.333,1333,649Zm850,4c0.33,0.667.67,1.333,1,2h-1v-2Zm2,4c0.33,1,.67,2,1,3h-1v-3Zm1,4c0.33,0.667.67,1.333,1,2h-1v-2Zm-889,3q0.495,6,1,12h-7c-2.05,5.008-3.66,16.955-9,19v-2c-0.67-1.667-1.33-3.333-2-5C1282.12,687.084,1295.92,666.974,1297,664Zm2,19c1.79,1.888,1.46,1.357,2,5,1.38,3.38-.83,8.227-2,12l-6,3v-1C1296.65,697.167,1298.76,691.2,1299,683Zm31,46c-8.44,9.678-46.93,37.519-48,48,0.33,0.667.67,1.333,1,2l6,1c13.19-18.215,37.71-24.941,44-50Zm580,52c17.51-.652,32.4,6.3,34,21l-3,3-3-2v2c2.28,3.486,2.82,10.621,3,16,3.8,1.917,5.94,1.826,7,7-2.33,1.333-4.67,2.667-7,4l-3,5c4.65-.041,5.88-1.2,6,6l-12,14c-18.52,12.465-51.02,4.32-56-15,2.1-1.1,1.9-1.3,5-2l6,6c-3.51-6.831-11.89-9.37-14-16,4.73-1.8,5.76-1.34,6-8-3.81-1.053-2.34.059-4-3,5.7-2.809,6.98-4.506,9-10h-1c-1.74,1.672-.89,1.193-4,2-0.33-2-.67-4-1-6C1891.57,789.378,1892.15,791.717,1910,781Zm-4,17c-8.41,6.763-33.93,34.389-10,45l3,1c2-3.308,11.56-19.1,9-22-4.88-2.385-6.36.236-7-7C1904.07,811.089,1908.75,801.3,1906,798Zm14,1c-1.82,3.6-6.46,11.818-5,15,4.42,2.436,5.41.189,6,7-3.36,4.086-12.09,20.346-11,24l4,1,12-7c8.23-9.609,10.99-33.414-3-39Zm23,11c3.63,1.826,3.43.776,4,6l-4,1c-0.67-2-1.33-4-2-6C1941.67,810.667,1942.33,810.333,1943,810ZM1509,919l3,1v1h-3v-2Zm697,14c3.35,11.635,41.37,71.34,50,77v-6Q2231.01,968.5,2206,933Zm-705,10c0.33,0.667.67,1.333,1,2h-1v-2Zm-6,16c0.33,0.667.67,1.333,1,2h-1v-2Zm-2,6c0.33,0.667.67,1.333,1,2h-1v-2Zm-1,2c0.33,0.667.67,1.333,1,2h-1v-2Zm-1,3v4h-1v-2C1490.33,971.333,1490.67,970.667,1491,970Zm-2,4v4h-1v-2C1488.33,975.333,1488.67,974.667,1489,974Zm-2,5c0.33,0.667.67,1.333,1,2h-1v-2Zm-1,2c0.33,0.667.67,1.333,1,2h-1v-2Z" transform="translate(-1180)"/>
    <path id="Preenchimento_de_Cor_6" data-name="Preenchimento de Cor 6" class="cls-5" d="M1797-1l6,1c3.9,6.019,5.27,11.969,7,21,6.99,4.59,13.17,8,25,8V23h2v1c6.72,2.809,17.16,18.713,19,26h-1V48c-5.74-4.355-8.66-13.733-16-16-3.52,4.843-7.31,6.937-10,13h-2c-3.22-11.414-13.61-11.511-18-20l-3-12a24.584,24.584,0,0,1-3,12l-11-2-6,7c-15.52-.806-6.39-11.314-15-17-6.28-3.141-29.38-3.975-37-3-0.33-.667-0.67-1.333-1-2l3-3h-2c-4.66,5.043-14.97,8.71-23,10l-3-2c1.52-1.978,1.59-2.421,2-6l-9-1c-4.02,3.836-9.43,10.2-14,13,0.33-.333.67-0.667,1-1-0.22-3.6-.36-2.509,1-7h-1c-5.65,4.091-9.59,7.863-19,8V18h2c5.85-7.755,13.43-23.35,26-24l8,1a25.588,25.588,0,0,0,4,6c19.67-5.924,23.5.629,40,6h28c8.67,2.856,11.42,11.059,24,9,0.33-2,.67-4,1-6C1798.95,7.343,1797.53,4.284,1797-1ZM1655,21h2v1C1656.33,21.667,1655.67,21.333,1655,21Zm-4,1h2v1C1652.33,22.667,1651.67,22.333,1651,22Zm-4,2h2v1C1648.33,24.667,1647.67,24.333,1647,24Zm-13,12h2c-2.7,7.09-2.56,13.946-13,14V49h1l6-7c-1.48-1.469-3.11-1.267-1-2C1630.67,38.667,1632.33,37.333,1634,36Zm-8,5c0.33,0.667.67,1.333,1,2-7.14,4.7-19.49,28.014-30,24h2A177.787,177.787,0,0,0,1626,41Zm231,10c0.33,0.667.67,1.333,1,2h-1V51Zm16,2c2.74,22.539,24.69,42.5,38,56q-3.495,7.5-7,15c-0.78-7.718-4.68-10.449-7-16-12.48-29.842-18.39-32.924-39-53V53h1C1863.24,57.918,1866.44,54.155,1873,53ZM1595,68h2v1C1596.33,68.667,1595.67,68.333,1595,68Zm-2,1h2v1C1594.33,69.667,1593.67,69.333,1593,69Zm-2,1h2c-0.33.333-.67,0.667-1,1l-7,1V71Zm-17,19c0.33,0.667.67,1.333,1,2h-1V89Zm-3,3h2v1C1572.33,92.667,1571.67,92.333,1571,92Zm-2,1h2v1C1570.33,93.667,1569.67,93.333,1569,93Zm-34,18,8-1c1.77-5.118-.46-10.635,6-12,4.9,2.139,12.34-2.847,19-4v1h-2c-7.22,12.166-18.94,25.205-34,29v-1Zm538,850h-4c-0.21,2.5-.5,3.438-3,6q-4.995-2.5-10-5v1h2c10.89,22.237,72.76,28.721,83,51-8.02,9.95,3.45,18.23,6,26,3.28,9.99,3.56,22.68,6,34h2c6.14,3.55,19.7,2,29,2h73V985q-0.495-20-1-40h1v2c4.73,6.7,2,26.57,2,37v95q-354.96-.495-710-1h469c11.3,0,31.36,2.73,39-2,0.33-1.67.67-3.33,1-5-6.83-10.52-6.74-24.52-11-38-8.31-26.33-17.75-55.337-25-83l-6-42c-16.31-56.381-27-120.7-49-174-11.32-27.412-25.46-52.954-40-77a466.825,466.825,0,0,0-30-44q-11.505-11.5-23-23c-6.46-8.716-10.21-27.073-24-28-17.3,20.041-43.89,24.066-82,24-0.67-1-1.33-2-2-3,5.21-7.05,13.84-12.81,17-21,0.33-.333.67-0.667,1-1h-1c-6.04,8.418-15.85,16.728-25,22-7.22,4.156-17.81,8.247-26,11-46.04,15.468-59.26-28.873-74-53-8.97-14.69-23.98-24.487-34-38-9.04-12.2-11.6-23.866-25-32,4.73-6.684-6.68-26.215-9-36l-9-4c22.17,1.161,33.17-1.514,41-17h1c-0.49,6.6.4,16.228,4,22v-2c7.88-10.939,7.24-41.454,12-53v1c26.41,30.988,40.73,73.682,108,61,12.38-2.334,21.77-2.025,30-8,11.71-8.5,12.9-23.581,16-41,1.28-7.181-.87-14.238,2-19l3-3v1c2.71,2.171-.01,1.7,3,3,0.33-.333.67-0.667,1-1,3.74,21.343-7.04,36.526,8,60v-1c13.92-17.3,1.31-39.769,3-64-11.27-4.762-23.93-10.949-24-27,0.33-.667.67-1.333,1-2,5.12-3.24,11.51-5.5,17-9-16.38-2.284-27.99-12.781-44-10v-2c0.33-1.333.67-2.667,1-4l-7-1-22,7c-2.69-4.056-4.14-5.791-11-6l-57,12q-9.495,7-19,14h-22c-21.06-7.68-47.35-30.361-73-32-1.67,2-3.33,4-5,6l-5-1v-1h1c3.19-3.034,5.69-3.8,7-9l-4-1c5.12-2.756,5.34-15.565,4-24-2.76-17.448-.94-41.651-5-61-14.19-6.818-33.56-21.822-27-48l6-10c2.21-7.13-1.1-14.841,2-20v2c10.3,15.486-9.96,29.161-5,45,1.42,2.843.2,1.544,3,3h8c6.21,11.06,11.78,17.494,30,17,9.3-3.945,18.42,6.244,30,4a325.909,325.909,0,0,0,34-8c11.78-3.561,22.48-13.193,35-18l51-12c11.43-4.613,21.85-15.065,37-13,10.97,1.5,15.45-9.578,29-6,8.91,2.351,26.72,9.407,31,17,4.99,8.849,7.13,26.277,16,31,7.69,3.5,32.26-15.689,44-18v1c-5.43,3.748-7.77,10.043-12,15-8.36,9.8-17.04,9.326-18,28,4.66,6.983,7.83,15.686,17,18,3.54-5.833.64-11.88,4-19,0.45,15.11,13.11,23.358,20,26,2.46,5.333,3.13,11.323,3,20-10.35,8.97-16.67,20.862-25,32l-12,11h2c7.34-6.679,16.18-9.5,25-15,11.12-6.929,21.48-17.245,32-25,3.42-2.525,8.23-2.82,11-6,1.27-2.671.78-6.148,3-8,1.7,3.224.63,2.339,5,3,6.13-5.106,22.83-3,32-2l12,13c0.69,41.975-27.64,49.265-32,82,5.49,5.972,8.06,10.05,20,10,3.7-2.932,15.47-6.557,22-3,16.24,6.582,23.02,28.726,31,44,6.66,12.742,21.13,24.755,31,35-0.25,17.478-6.1,54.609,2,64-7.41,6.2-1.9,21.206-4,33-5.55,31.239,1.27,70.4,14,88,5.87,8.111,13.84,14.92,18,25q2.505,14.5,5,29c3.7,15.885,8.01,31.208,14,45,30.92,71.189,105.84,155.48,69,254h-1c-0.33-1.333-.67-2.667-1-4-2.24,2.3-1.38.64-4,2-0.67,3-1.33,6-2,9-1.27-7.433-5.13-6.558-6-15,0.67-.333,1.33-0.667,2-1-4.16-3.013-4.25-4.387-4-9,2.41-2.336,2.83-4.2,3-9h-1v1c-0.67,1.333-1.33,2.667-2,4-1.69-2.519-2.18-2.594-5-4l6-16-3-1h-4v-4c-5.24,3.66-14.49,10.482-16,11h-5v-3c-1.46-2.032.98-2.8-2-5-1.85,3.514-4.25,5.258-9,6v-2c-3.37-5.2.21-10.395,3-15-0.33-.333-0.67-0.667-1-1-1.67,1-3.33,2-5,3v3l-3,1-8-2c-3.41-8.662-5.16-15.488-10-22h-1c-2.07,13.2-10.84,18.153-14,29C2072.15,945.442,2072.34,951.265,2073,961ZM1906,149c0.33,0.667.67,1.333,1,2h-1v-2Zm1,2v0Zm1,4v0Zm-382,14c2.51,1.736,1.84.565,3,4,0.33,2,.67,4,1,6h-1C1526.91,175.732,1526.1,174.973,1526,169Zm383,8v0Zm1,4v0Zm2,12c0.33,0.667.67,1.333,1,2h-1v-2Zm-367,1h2c0.33,2.333.67,4.667,1,7h-3v-7Zm368,13c0.33,0.667.67,1.333,1,2h-1v-2Zm3,11c1.79,1.888,1.46,1.357,2,5v6Q1917,223.5,1916,218Zm-78,10c-2.71,7.2-1.56,14.032,4,18,0.33,0.333.67,0.667,1,1v-2Q1840.5,236.5,1838,228Zm38,1c9.76,10.2,15.7,20.27,17,37h-6C1882.17,252.533,1878.84,245.831,1876,229Zm43,0c2.54,4.018,3.83,20.733,1,26Q1919.505,242,1919,229Zm0,28c0.33,0.667.67,1.333,1,2h-1v-2Zm-478,46c37.21-.7,52.93,7.615,75,21h-1a181.929,181.929,0,0,1-29,19c-3.51-8.263-9.69-3.663-14,0-0.91-7.839-11.73-13.39-17-17v2c5.17,6.162,15.48,27.068,20,29,0.67-.667,1.33-1.333,2-2,0.9,3.725,1.52,4.988,4,7,0.89-7.944,5.57-9.8,10-14h5c10.13,10.232,19.56,26.631,25,41-3.71-.8-2.99-1.432-5,2-10.23,21.145,11.06,49.843,7,70-2.87,14.264-14.41,19.826-16,36h2c6.47-4.854,14.95-7.9,26-8v1c-10.63,1.157-28.58,6.578-35,13q-6,12.5-12,25-16.005,23-32,46-4.005,9-8,18c-10.59,15.443-69.21,20.186-95,20-2.95,5.736-7.37,10.91-14,13v-2q3.495-7.5,7-15c-16.23-3.159-27.23-7.325-33-21-5.05.079-3.21-.329-7,2v-2c11.64-12.2,16.65-56.673,11-82-10.53-47.2-7.17-107.378-3-160q5.505-5,11-10h20c6.29-9.486,9.85-22.253,18-30l22,1c5.35,2.007,10.18,7.21,14,11,5.4-1.686,7.5-6.507,12-8C1424.61,304.487,1432.56,311,1441,303Zm102,3h2v1C1544.33,306.667,1543.67,306.333,1543,306Zm-4,2,3,1h-2C1538.91,309.9,1539.48,308.59,1539,308Zm-4,2,3,1h-1c-1.67,1-3.33,2-5,3Zm-5,4h2v1C1531.33,314.667,1530.67,314.333,1530,314Zm-7,20h-7c-0.33-.667-0.67-1.333-1-2l8-2v4Zm-44,16c0.33,0.667.67,1.333,1,2h-1v-2Zm373,11-22,6c11.63-.1,16.83,2.567,27,3,0.33-2,.67-4,1-6-0.33-.667-0.67-1.333-1-2Zm-340,18c-0.77,14.317-5.69,37.622,1,50C1513.15,417.827,1514.77,381.958,1512,379Zm10,12c1.46,1.417,1.01.764,2,3h-1v-1C1522.67,392.333,1522.33,391.667,1522,391Zm2,3c8.44,8.679,14.4,19.466,25,26l21,9h-5C1548.45,418.959,1527.76,416.661,1524,394Zm199,4,6,3-8,1v2q3.495,3.5,7,7v2c-1.67,1-3.33,2-5,3v1q7.995,3,16,6h-7q-4.995-1.5-10-3c-2.71-7.575-4.07-12.23-2-21Zm-278,2c0.33,3,.67,6,1,9q-7.005,7-14,14c-4.7,3.531-11.15,4.641-15,9-0.33.333-.67,0.667-1,1h2c4.91-4.756,32.73-8.879,42-7l6,11h1V421c-0.67-2.333-1.33-4.667-2-7C1457.72,409.44,1451.17,405.31,1445,400Zm119,15a84.974,84.974,0,0,1,17,3v2h-1C1574.84,417.55,1568.07,418.233,1564,415Zm9,14h2v1C1574.33,429.667,1573.67,429.333,1573,429Zm4,1,4,1Zm153,3,17,1Zm176,10c-6.34,5.147-16.66,4.308-24,9q-3.495,6-7,12h2c3.35-5.04,5.18-6.07,12-8,34.65-9.814,28.06,15.992,41,37,0.88-27.867-3.25-34.613-17-50h-7Zm20,11c3.18,6.78,21.18,29.62,27,33v-1C1944.11,472.079,1943.79,459.153,1926,454Zm-246,14c0.33,2.333.67,4.667,1,7h-6c-7.43-3.918-22.96-2.182-36-2-4.02,6.773-11.94,8.255-15,15-0.33,2-.67,4-1,6,8.77,9.272,26.46,23.56,45,14-6.76-.3-10.66-2.074-12-8,7.21-4.825,10.09-8.732,15-16,0.98,10.86,10.18,9.755,22,9,3.83-1.74,7.51.364,11,1,7.69,1.4,11.19-2.929,17-3,7.51-.091,10.74,3.7,20,4v-2c-11.02-12.465-24.93-10.887-44-15q-3.495-5.5-7-11C1685.89,468.54,1685.58,468.468,1680,468Zm141,27-9,2c6.25,0.839,12.64-.873,17,1C1826.74,495.23,1826.19,495.124,1821,495Zm-90,2c-13.73,7.78-34.6,5.342-48,13-0.33.333-.67,0.667-1,1h1c17.45-9.286,46.92-9.139,69-6v-1C1745.02,500.461,1742.04,497.084,1731,497Zm-54,13h0Zm-355,46c-3.74,8.326-9.18,13.3-10,24,4.51,1.275,15.44,18.9,25,22-0.33-.333-0.67-0.667-1-1-0.6-8.324-11.85-16.084-14-26C1320.15,566.471,1328.52,562.853,1322,556Zm-17,34v20c4.84,1.889,10.07,7.2,12,12h-1c-2.79,4.215-4.77,5.666-10,5-0.39,4.333-.7,4.884-3,7-0.33.333-.67,0.667-1,1v-2c2.41-5.833-2.08-7.885-3-12C1297.19,612.869,1302.72,596.193,1305,590Zm135,18,3,1h-1c-7.33,5.852-19.96,6.979-29,11v2h4c8.33-4.4,18.54-5.509,26-10v2h-1c-9.01,11.287-44.5,18.866-66,13l-15-6v1h2l6,6a275.721,275.721,0,0,1-16,76h-1v-6c4.69-8.795,16.35-46.165,13-60-1.62-6.672-6.15-10.02-7-18h2c5.78-3.74,18.98.835,29-1C1406.64,615.769,1427.3,616.514,1440,608Zm-43,12c-1.1,2.1-1.3,1.9-2,5,0.33,0.333.67,0.667,1,1,3.38-1.8,3.9-1.649,5-6h-4Zm-10,1c-0.67,1.333-1.33,2.667-2,4h4c0.67-1,1.33-2,2-3-0.33-.333-0.67-0.667-1-1h-3Zm-172,458c-1.33-70.1,13.57-120.827,31-172q6-24,12-48c0.33,1,.67,2,1,3,0.78-16.012,20.05-63.415,17-75-1.89-7.785-7.5-7.918-9-16q8.505-17,17-34,4.005-5,8-10-0.495-6.5-1-13c14-6.514,17.25-33.684,17-54,4.99-2.5,23.67-18.016,25-23,0.09-2.983-1.33-5.2-4-8,1.67,0.333,3.33.667,5,1a8.641,8.641,0,0,0,2,6l12,1c1.62,3.12,2.09,6.472,2,12,5.02,21.257-9.48,63.869-18,77q-6.495,4.5-13,9v-2c2.61-4.952-1.08-12.868,2-20,2.73-6.31,10.05-6.919,13-12,4.56-7.848,7.94-39.769,8-51l-3-1c-9.69-3.966-17.47,13.5-20,20q-1.005,8-2,16c-1.22,4.47-5.92,8.321-7,12q0.495,6,1,12c-1.64,10.584-2.45,22.028-6,31-6.03,15.225-23.17,21.906-26,38,10.16,8.825,16.15,22.913,33,25,0.33-.333.67-0.667,1-1,0.41-4.425,2.28-6.283,3-9,2.87-10.817-6.64-19.215,0-32q6.495-8,13-16h1v2q-1.995,4.5-4,9h1v-1c7.86-6.016,10.44-18.866,15-28h1v6c-1.66,4.552.3,14.295-1,20h1v-2c6.45-5.4,4.87-20.5,8-29,0.67,0.333,1.33.667,2,1,0.33,1,.67,2,1,3-2.24,3.731-2.54,11.423-1,16l6-2c0.33-3,.67-6,1-9-1.73-2.815-2.01-6.239-2-11-3.51-1.833-7.48-2.823-9-7,2.73-1.324,8.48-1.936,12-3l3-7c0.74,8.46,4.36,8.865,9,13,15.99,0.541,25.06-4.624,28-17v-1c-1.33-1-2.67-2-4-3,7.05,0.527,20.12.91,23,6,7.61,16.113-8.99,37.545-11,47,0.33,0.333.67,0.667,1,1l6-1v14c-4.55,9.439-8.39,81.241-6,94,19.26,6.077,46.67,6.531,67,11,7.79,1.713,16.7.17,20,6,4.19,7.387.95,50.152-1,58-12.68,50.978-36.16,95.97-52,144h2c2.67,0.67,5.33,1.33,8,2h-1c-7.65,5.37-50.49,2-64,2H1215Zm154-450c14.82,6.862,46.86,9.565,67,1v2c0.33,1,.67,2,1,3-4.37,5.126-13.88,10.218-16,13-6.91,9.049.19,14.174-17,14-1.67-1-3.33-2-5-3v3c-0.33,2.333-.67,4.667-1,7h1v-1c1.57-1.55,2.73-2.882,3-3v2c-1.54,3.952-1.99,4.376-7,5-5.93,3.334-15.43,1.509-22,0-0.8-4.809.04-7.824,2-12h9c1.15,5.885,1.95,8.61,9,9,2.61-3.731,4.35-4.775,5-11-0.67-1.333-1.33-2.667-2-4l-21-2C1373.3,644.757,1372.23,634.464,1369,629Zm-46,5v2c-1.23,4.224-1.47,4.908-6,6v-1h1Q1320.505,637.5,1323,634Zm-30,8h2c-0.67.667-1.33,1.333-2,2-0.33.333-.67,0.667-1,1C1292.33,644,1292.67,643,1293,642Zm109,21h2v1C1403.33,663.667,1402.67,663.333,1402,663Zm-107,6c0.33,0.667.67,1.333,1,2h-1v-2Zm-1,2c0.67,1.333,1.33,2.667,2,4h-3v-2C1293.33,672.333,1293.67,671.667,1294,671Zm-3,4h2v1C1292.33,675.667,1291.67,675.333,1291,675Zm96,3c6.05,0.443,8.61,2.361,13,4v1h-4c-7.79-4.578-15.54.738-22,3v-1h1C1378.26,680.9,1382.33,680.792,1387,678Zm-99,1c1.07,3.519-1.76,11.193-3,16h-3c-0.33-1.667-.67-3.333-1-5C1285.17,687.979,1285.93,682.794,1288,679Zm112,4h2v1C1401.33,683.667,1400.67,683.333,1400,683Zm-101,2c2.92,4.75,1.06,9.286-1,14-1.33.667-2.67,1.333-4,2v-2C1297.19,695.914,1298.57,690.819,1299,685Zm122,0c0.33,0.667.67,1.333,1,2C1420.18,686.609,1419.28,685.363,1421,685Zm-5,2,4,1Zm-52,12c0.33,1,.67,2,1,3h-1v-3Zm515,111c1.39-28.376,60.49-41.19,64-8l-4,1c-1.67-1.667-3.33-3.333-5-5v1c4.45,5.908,3.16,23.6,12,25v1c0.33,1,.67,2,1,3-8.78,3.286-12.96,11.312-17,19h1q4.005-5,8-10l3,1c0.67,0.333,1.33.667,2,1-9.48,25.138-61.08,34.753-67,3,0.33-.333.67-0.667,1-1,0.67,0.333,1.33.667,2,1,8.1,3.655,19.93,19.5,35,12-21.46.617-23.12-7.976-33-18-3.32-3.368-6.12-.506-8-6h2c3.65-2.56,3.87.916,4-7,3.99-7.469,5.94-14.533,10-21h-1C1886.58,805.745,1884.52,809.088,1879,810Zm30,10h-6c-0.33-1.667-.67-3.333-1-5,3.5-4.185,5.51-10.936,7-17-0.33-.333-0.67-0.667-1-1-0.67.333-1.33,0.667-2,1-14.98,4.234-27.74,31.754-12,45,2.84,1.749,5.12,2.613,7-1C1905.17,837,1908.47,828.191,1909,820Zm5-4h6c0.33,0.333.67,0.667,1,1q-6.495,14.5-13,29c0.67,0.333,1.33.667,2,1,20.15-3.954,26.79-20.895,21-42q-4.005-3.5-8-7c-0.67.333-1.33,0.667-2,1-2.84,1.425-1.54.2-3,3C1915.32,805.708,1914.17,809.7,1914,816Zm29-5c3.05,2.586,3.9,3.132,0,4v-4Zm-533,47c-3.66,29.02-7.74,92.292-5,100-4.69,13.274-6.87,28.238-9,37-4.03,16.56-1.36,31.82-9,45h1c0.67-.33,1.33-0.67,2-1,0.33-1.33.67-2.67,1-4h1v2c-1.19,2.33.55,5.1-2,9-0.85-3.65-.75-3.12-3-5v1c2.07,2.57,1.59,1.82,1,5,2.56,0.78,1.33-.54,2,3-0.33.67-.67,1.33-1,2h-2v2c-0.33,1-.67,2-1,3-4.49-2.38-3.49-2.29-8,2,3.66,1.44,1.52-.61,3,3h-4l-6-3c1.06-1.91,1.44-3.98,1-5-2.86-4.96-10.48-15.86-17-12-0.64-3.13-.89-2.9-2-5,0.67-.33,1.33-0.67,2-1-3.05-1.33-3.73-2-7-5-1.73.89-9.46-2.24-14-3v-1c0.33-1.33.67-2.67,1-4l6-6c-5.11-2.13-2.84-4.35-5-9-0.33,2-.67,4-1,6v-1q-2.505-7.5-5-15c-2.53-2.822-4.06.441-6-4h1v1h2c0.33-.333.67-0.667,1-1-2.2-1.845-2.37-3.568-4-6v1c-2.11,1.624.68,1.109-2,2l-3-4c-0.91,4.346.7,2.445-3,4-0.33.333-.67,0.667-1,1-0.33-1.333-.67-2.667-1-4h-2v3c-2.87-1.465-.99-0.963-6-1-4.68,11.15-8.87,23.65-10,39q-3.495,3-7,6c-12.54,1.12-21.08-2.88-31-6v1h1c10.04,9,24.55,12.48,34,22,0.24,8.34-2.76,11.5-3,21l1,1c24.62,3.26,54.44,1,81,1h46c0.33-1.67.67-3.33,1-5q-0.495-16.5-1-33c5.59-29.07,4.41-98.12-2-125q-1.5-25.5-3-51Zm825,27v4h-4c14.46,18.39,15.13,55.833,14,81h-5c-16.88-24.153-35.68-46.056-52-72-5.69-9.045-18.49-20.879-18-32,30.04-4.4,47.84,1.762,59,19C2230.16,882.28,2230.56,884.7,2235,885Zm-947,4c5.05,5.262,16.1,6.795,22,11v-4c-1.88-2.4-3.62-2.107-8-2Zm893,21c7.41,11.011,2.42,33.16-2,44-0.67-.333-1.33-0.667-2-1h-1q0.495-14.5,1-29Q2179,917,2181,910Zm-46,28c0.33,0.667.67,1.333,1,2h-1v-2Zm-3,5v2C2130.5,946.328,2132.04,943.825,2132,943Zm57,1c0.33,0.667.67,1.333,1,2h-1v-2Zm0,3c5.73,4.091,3.7,18.748,2,26-0.33-.667-0.67-1.333-1-2-3.33-1.589-3.73-3.574-6-6C2184.04,956.768,2186.57,953.065,2189,947Zm-141,8c0.67,0.667,1.33,1.333,2,2C2049.33,956.333,2048.67,955.667,2048,955Zm4,5,3,3Zm92,13c0.33,0.667.67,1.333,1,2h-1v-2Zm43,47c1.86,2.4,2.09,2.65-1,5v-1l-1-1C2186.46,1021.58,2186.01,1022.24,2187,1020Zm-833,6c-0.24,3.26-2.01,3.01,2,5v-1C1352.74,1028.45,1355.86,1027.88,1354,1026Zm-9,2v2h1C1345.67,1029.33,1345.33,1028.67,1345,1028Zm11,14c2.89,2.22,3.26,1.44,4,5-1.33.33-2.67,0.67-4,1v-6Zm6,7c1,0.33,2,.67,3,1-0.67,1-1.33,2-2,3C1362.67,1051.67,1362.33,1050.33,1362,1049Zm8,0v2l1-1h1C1371.33,1049.67,1370.67,1049.33,1370,1049Zm696,8c4.66,6.79,12.25,15.41,22,17v-1Zm-691,5c1,0.33,2,.67,3,1-1.52,3.49-1.78,5.07-4,6v-4C1374.33,1064,1374.67,1063,1375,1062Zm-1,8h2v1C1375.33,1070.67,1374.67,1070.33,1374,1070Zm-2,2c1.33,0.33,2.67.67,4,1C1374.67,1072.67,1373.33,1072.33,1372,1072Zm12,0c0.33,0.67.67,1.33,1,2h-1v-2Z" transform="translate(-1180)"/>
    <path id="Preenchimento_de_Cor_5" data-name="Preenchimento de Cor 5" class="cls-6" d="M1782,21l3,1c0.33,1.333.67,2.667,1,4l-5,1c-0.33-1.666-.67-3.334-1-5C1780.67,21.667,1781.33,21.333,1782,21Zm211,747h-4c-7.32-28.751-25.32-54.395-40-77-13.96-21.5-24.08-44.018-39-64l-36-39c-7.58-10.45-12.2-21.969-21-31l-24,17c-15.84,8.111-40.1,6.751-58,8v-1h1c12.45-18.152,63.56-55.721,64-77-3.46-4.9-2.22-12.05-9-14-10.47,6.638-22.96-.688-28-6-1-19.66,14.69-44.226,21-65,4.36-14.364-7.29-28.879-1-45l10-1c6.27-3.36,17.9,4.345,25,1,3.46-1.187,4.49-1.8,6-5,0.33-2.666.67-5.334,1-8-0.33-.333-0.67-0.667-1-1-33.19-2.168-46.22,17.123-70-10,0.33-3,.67-6,1-9l27-12v-1h-3c-11.17,7.278-33.07-8.294-48-9-0.65-5.957-1.41-7.71-8-8l-24,7c-2.78-.859-3.74-4.736-9-4l-38,9-25,3q-4.995,3.5-10,7c-7.35,2.32-10.82-4.454-19-2q-4.005,2.5-8,5c-20.3-1.437-57.72-32.274-74-27v-1l3-5-5-1c8.13-28.539-11.77-65.9,1-90l9-1c11.5,11.069,51.49,2.809,67-2,12.89-4,23.92-14.99,38-20,19.63-6.985,41.06-7.294,59-15l18-9h17c4.62-1.489,8.63-7.969,17-6,9,2.118,13.3,11.318,22,13l6-1c6.07,9.482,11.99,33.965,25,36h8c0.33,1.667.67,3.333,1,5-19.94,23.379-.71,34.288,13,48l12,15V260h1v2c3.2,5.925,1.21,13.9,0,20-5.76,29.03-18.44,30.785-39,44h3q8.505-2,17-4c6.8-2.842,26.94-15.987,34-21,23.41-16.629,39.13-40.33,78-37l12,13c0.69,41.975-27.64,49.265-32,82,5.49,5.972,8.06,10.05,20,10,3.7-2.932,15.47-6.557,22-3,16.24,6.582,23.02,28.726,31,44,6.66,12.742,21.13,24.755,31,35,0.03,39-6.67,62.957-10,98-1.25,13.124-7.19,32.77,1,42-4.38.612-3.29-.182-5,3-0.33,1.667-.67,3.333-1,5,3.9,3.265,5.87,6.786,6,14-3.8,1.524-2.83,1.1-3,6,4.52,6.082.3,8.25,3,16,2.26,6.474,10.43,16.8,12,20-1.67.333-3.33,0.667-5,1,5.94,3.547,14.62,9.261,20,14,1.91-1.284,1-1.127,4-2-1.41,6.6,3,8.35,5,14h-2c-5.51-5.32-8.79-4.391-14-11v3c13.7,18.09,6.26,31.315,12,49,2.85,8.793-3.68,22.477-1,29,2.33,5.668,6.84,5.684,7,16-0.67-.333-1.33-0.667-2-1v2c6.06,6.7-.74,15.488,3,22,0.33-1,.67-2,1-3,1.39,1.952,2.2,1.66,4,3,0.33,2.666.67,5.334,1,8v4h-1c-2.13-2.266-4.26-3.235-8-4-0.23,5.946-.94,6.888-6,8h-2c-6.1,12.369-3.91,31.7-6,41h-11v1c0.33,2.333.67,4.667,1,7-4.25-.249-7.68,3.6-11,2-0.33,1.333-.67,2.667-1,4-0.33-1-.67-2-1-3v3c1.72,2.959,1.44.429,0,4h3v9h-2a18.37,18.37,0,0,0-1-8c-3.4,1.751-5.36,2.839-8-1,0.67,0.333,1.33.667,2,1v-1a6.444,6.444,0,0,1,1-3h-1c-0.67.667-1.33,1.333-2,2,0.33-1.333.67-2.667,1-4h-2c-7.57-11.877-6.88-24.651-13-41,0.67-.333,1.33-0.667,2-1C2010.47,812.618,1993.06,771.282,1993,768ZM1534,205c6.96,2.6,14.31,2.347,14,14-0.33.667-.67,1.333-1,2-5.54-4.833-13.63-7.993-18-14h2Zm-93,98c33.83-.649,48.34,5.7,68,18v4q-10.995,8-22,16c-0.67-.333-1.33-0.667-2-1-0.33-1-.67-2-1-3-16.83-1.288-26.02-13.267-37-21v5c10.66,14.011,26.2,29.431,34,45q1.995,6.5,4,13c-0.16-11.605.96-15.456,3-23,12.24-5.806,25.13,9.412,22,26-5.57,29.58,2.13,47.743,4,75,0.64,9.336-9.38,31.049-13,40h1c0.67-.333,1.33-0.667,2-1l3-7h1v9c-14.07,4.109-16.7,22.1-24,33q-15.495,21.5-31,43c-3.86,6.443-5.19,16.6-11,21-10.01,7.592-28.35,8.635-42,12l-36,5c-42.55-10.562-29.92-38.526-38-78-6.42-31.386-9.7-72.342-16-103q1.995-43,4-86,5.505-5,11-10c24.19-.366,47.42,7.848,58,22,5.35,7.15,7.71,12.819,15,18v-2c-6.85-6.7-11.8-18.206-21-25-9.54-7.047-22.96-8.392-26-22l3-13,9-8,22,1c6.63,2.4,12.14,8.735,14,16h1c0.84-8.017,6.48-8.906,11-13C1424.54,309.476,1434.51,309.286,1441,303Zm-58,108c0.17,11.061.61,16.053,1,26l-9,7c9.78,0.1,10.91.719,19,0v2c1.83,3.334,1.31,5.273,1,9h1v-2c7.28-5.932,18.47-12.615,28-19v3c-5.27,7.819-4.41,21.256-4,32h1v-1c5.84-9.758,6.07-21.726,16-27l11-2c5.16-2.553,5.22-5.217,12-5,3.34,4.856,9.29,11.635,15,14v-1c-6.74-5.994-6.02-24.759-8-35-37.63-13.539-20.65-52.432-46-71v1c4.16,4.942,22.47,57.707,20,63-5.7,14.65-24.3,20.041-35,30l-6-3h2c6.85-9.626,17.75-13.45,26-19l-22-7c-0.85,2.629.69,1.12-2,2-0.67.333-1.33,0.667-2,1v-2C1398.56,409.351,1389.62,410.886,1383,411Zm-38-27c3.05,6.99,5.85,10.869,2,18h3c5.6-5.006,12.35-.564,20,2v-1C1361.32,396.827,1355.16,389.091,1345,384Zm172,2c0.33,0.667.67,1.333,1,2h-1v-2Zm124,4c15.56,12.991,20.52,34.27,39,45,11.02,6.4,28.54,2.605,29,20-3.09,3.186-2.72,4.484-9,5l-24,1c-6.18,1.827-10.04,8.1-15,10-11.02,4.217-24.93-2.879-35-1-0.6,8.8-5.1,8.914-9,14-0.33-.333-0.67-0.667-1-1-11.21-8.365-18.41-22.126-24-36-2.59-6.435-1.27-9.66-5-14,10.04,0.413,18.57-1.23,30-2l6,14v-1C1629.86,439.429,1639.09,400.234,1641,390Zm-127,8c1.54,3.105,6.59,51.8,6,53C1519.35,434.225,1514.19,419.206,1514,398Zm12,2c8.71,6.552,13.67,15.522,24,21v1h-3C1540.24,415.184,1528.32,411.01,1526,400Zm195,7a28.067,28.067,0,0,1,4,5h-3C1721.67,410.333,1721.33,408.667,1721,407Zm251,14-37,3q-7.005,5.5-14,11c-11.87,7.455-23.96,11.717-40,15-8.56,14.353-18.63,26.143-28,39h2c6.09-6.041,16.55-18.407,26-20,9.51,7.41,24.87,7.2,32,17,2.1-1.1,1.9-1.305,5-2,6.54,10.294,3.9,20.356,9,30v-2q5.505-11.5,11-23c0.33,0.667.67,1.333,1,2,10.53,5.476,7.38,25.208,10,32,0.33,0.333.67,0.667,1,1l6-3c3.58-7.375,4.35-23.429,14-25l16,2v-1c-9.23-4.534-17.01-13-24-20l-3-30h-2c-2.05,2.588-6.23,2.261-11,2-0.33-1-.67-2-1-3q7.005-4.5,14-9c6.28,3.153,19.05,11.87,27,9-7.6-3.207-11.72-12.282-17-18,0.33-1,.67-2,1-3,1.33-1,2.67-2,4-3v-1h-2Zm-422,1,4,1v1C1550.87,423.245,1551.73,423.653,1550,422Zm5,2h2v1C1556.33,424.667,1555.67,424.333,1555,424Zm2,1h2v1C1558.33,425.667,1557.67,425.333,1557,425Zm3,1,4,1v1C1560.87,427.245,1561.73,427.653,1560,426Zm226,1c0.59,2.473-1.6,5.527-1,8q4.005,5.5,8,11c3.11,7.571,2.36,11.356,4,16l-3,4c0.67,2.333,1.33,4.667,2,7,1.47,18.4-6.44,31.245-4,52h-2c2.14,2.121,4.65,9.446,4,11-8.84,26.34-29.44,44.276-58,52-6.21,1.679-13.82,7.06-21,3-5.26-2.306-8.24-9.054-12-13l-8-1c-0.67,1.667-1.33,3.333-2,5-3.42-2.836-7.97-3.249-12-6-8.12-5.546-15.43-25.492-13-38h5c4.44,4.338,8.99,8.2,17,9,1.75-2.769,2.34-2.529,3-7a6.265,6.265,0,0,0-1-4c-12.16-8.467-19.36-1.7-32-15v-7l3-1h22l21-7c19.98-4.665,39.67,6.051,54,2l-3-3c0.67-.333,1.33-0.667,2-1-12.61-3.722-14.97-16.077-25-22-11.33-6.688-25.55-1.77-35-11v-1c7.96-3.435,19.13-15.019,26-21-0.67-.667-1.33-1.333-2-2C1745.71,446.421,1775.08,442.733,1786,427Zm-221,1h2v1C1566.33,428.667,1565.67,428.333,1565,428Zm20,4h2v1C1586.33,432.667,1585.67,432.333,1585,432Zm-183,3h2v1C1403.33,435.667,1402.67,435.333,1402,435Zm119,16c7.14,11.586-5.88,25.35-10,33h-1v-2C1516.27,474.62,1520.93,464.266,1521,451Zm-12,33v5h-1v-3C1508.33,485.333,1508.67,484.667,1509,484Zm108,0c0.33,0.667.67,1.333,1,2h-1v-2Zm-90,5,4,1Zm-4,1,4,1h-6C1521.67,490.667,1522.33,490.333,1523,490Zm-6,2,4,1C1516.88,493.155,1518.56,493.615,1517,492Zm202,1q4.995,1.5,10,3h-2c-10.86,6.728-61.4,18.218-68,4C1672.97,491.958,1709.75,499.521,1719,493Zm-206,1h2v1C1514.33,494.667,1513.67,494.333,1513,494Zm242,10h2v1C1756.33,504.667,1755.67,504.333,1755,504Zm280,63h2c-0.32,20.023,4.37,34.972,7,51h-1v-2C2035.39,608.921,2032.1,574.935,2035,567Zm-721,18c0.33,0.667.67,1.333,1,2h-1v-2Zm2,3c0.84,1.814,1.82,1.17,0,2v-2Zm4,5c0.84,1.814,1.82,1.17,0,2v-2Zm7,6c0.84,1.814,1.82,1.17,0,2v-2Zm-20,17,6,5c-0.33.333-.67,0.667-1,1-1.74,1.672-.89,1.193-4,2C1306.4,620.96,1305.92,619.814,1307,616Zm85,5c0.33,1.667.67,3.333,1,5h-2v-1C1391.33,623.667,1391.67,622.333,1392,621Zm-10,1c0.67,1,1.33,2,2,3h-2v-3Zm-21,2c4.13,2.793,6.54,5.32,7,12,3.54,6.977-3.07,35.392-7,41l6-36Zm16,14c16.5,5.943,31.36,2.2,51,2v1h-1c-10.78,9.089-29.96,9.146-50,9-1.41-2.71-1.92-4.2-2-9C1375.67,640,1376.33,639,1377,638Zm-33,2h3v3a6.265,6.265,0,0,1-1,4c-1.67.333-3.33,0.667-5,1-7.11-4.719-11.78,1.809-18,4v-2C1328.33,646.5,1338.82,644.3,1344,640Zm714,0h2C2058.52,641.346,2059.78,640.919,2058,640Zm9,15c2.21,1.419.57-.181,2,2,4.12,5.343,10,33.279,7,40Zm-750,3h2c0.09,11.728-3.25,25-7,34-1.33.667-2.67,1.333-4,2v-1c-0.33-3.666-.67-7.334-1-11,3.8-5.877,8.17-14.616,10-21h-1v2c-2.6,2.1-1.95,2.853-6,4v-1c0.33-1.333.67-2.667,1-4Zm43,19c0.33,1,.67,2,1,3h-1v-3Zm-54,22c7.27,4.039,1.3,30.44-2,35,0.41-7.513,3.66-27.439,0-31v2c-6.8,10.854-2.67,35.684-8,47h-1v-2c4.28-6.611,3.21-25.268,3-33q2.505-8.5,5-17Zm100,9,3,1c0.33,0.667.67,1.333,1,2,4.28,8.977-3.11,24.415-5,31q0.495,6,1,12l-6,19c-1.65,8.7-.85,24.937-3,35-5.84,2-5.26,4.753-14,5-0.67.333-1.33,0.667-2,1v-2c1.18-1.343,3.42-3,2-4l-3-5c2.66-1.091,2.42-1.07,4-3-0.33-1.333-.67-2.667-1-4-4.3-1.074-3.79-2.26-7-4v1c-1.96,1.6.53,1.254-3,2-0.33.333-.67,0.667-1,1-0.36-3.141,1.56-1.15-1-3-2.03-1.44-4.13-2.662-6-4-0.58,5.121-19.63,10.725-21,10-0.33-.667-0.67-1.333-1-2l3-5,3-2c-0.67-.333-1.33-0.667-2-1,0.67-.333,1.33-0.667,2-1-3.07-1.664-.24-0.221-2-3-0.67.667-1.33,1.333-2,2,0.04-5.353.2-3.764-1-8,0.67,0.333,1.33.667,2,1-0.33-1.667-.67-3.333-1-5-0.33-.667-0.67-1.333-1-2-2.79,1.381-1.51-.908-3,2,0.33,0.667.67,1.333,1,2h-5c-0.67-.333-1.33-0.667-2-1-0.33-1.667-.67-3.333-1-5q5.505-10,11-20a11.578,11.578,0,0,0,3,2c0.03-5.244.89-8.829,3-12,1.52,3.783.33,2.5,5,3,3.96-3.723,5.9-3.892,6-12l-3-13c-2.6-1.53-7.22-3.475-9-6h5C1370.87,722.321,1395.37,721.292,1406,708Zm-112,44c0.33,0.667.67,1.333,1,2h-1v-2Zm619,30c16.87-.039,21.22,7.334,29,16v4h-3c-23.79-36.058-45.02.977-60,7v-1C1891.57,789.42,1892.87,792.505,1913,782Zm-698,297c-1.38-67.09,11.79-117.113,29-166,3.74-10.625,8.13-42.312,15-48,0.67-.333,1.33-0.667,2-1V852c3.28-16.674,9.55-53.626,18-66l3-1c9.6,9.882,20.66,22.245,36,26,1.59-3.207,3.07-8.914,6-11v2c-2.67,5.257-8.06,16.414-7,23l3,9c-1.08,5.4-7.09,19.792-9,28-2.25,9.653,1.5,18.273-4,24-12.45,8.417-40.25-12.65-43-22h-1v3c5.56,8.135,8.26,16.255,16,22,6.63,4.92,20.15,7.512,24,15,3.12,4.268,1.59,21.384,0,30-4.41,23.861-5.92,97.11-29,97-14.81-7.91-32.53-11.13-39-27h-1v2c7.86,9.29,10.95,19.87,21,27,7.69,5.45,23,9.15,27,18,3.7,5.73-.26,13.93-1,22,12.94,6.04,37.08,4,56,4h116v1h-2Q1333.01,1078.495,1215,1079Zm857-294c1.81,0.843,1.17,1.82,2,0h-2Zm-2,1c-0.33.667-.67,1.333-1,2A17.653,17.653,0,0,0,2070,786Zm1,2,1,3C2071.67,790,2071.33,789,2071,788Zm-745,1a11.7,11.7,0,0,1,6,4c0.33,0.333.67,0.667,1,1a18.234,18.234,0,0,0-9,2v-4C1324.67,791,1325.33,790,1326,789Zm586,1c7.57-.114,10.83,1.433,16,3,5.19,6.844,15.63,19.4,12,34-3.37,13.578-20.63,35.183-41,24-9.25-2.994-12.4-11.38-18-18C1880.65,805.577,1895.05,800.041,1912,790Zm-2,29h-7q3.495-10.5,7-21c-1.33-.667-2.67-1.333-4-2-11.84,8.312-32.19,32.253-12,48,3.73,2.083,3.67,1.1,8,0C1904.54,835.22,1909.39,829.861,1910,819Zm9-21c-2.74,5.645-5.45,9.946-6,18,0.33,0.333.67,0.667,1,1h5c0.33,1,.67,2,1,3-3.85,4.436-13.16,21.4-12,26l7,1c14.66-9.882,22.98-20.017,16-43q-3.495-3-7-6h-5Zm23,27h4v3C1941.06,827.238,1942.7,827.836,1942,825Zm-67,5,4,1v2C1874.06,832.238,1875.7,832.836,1875,830Zm65,8,3,1c-0.33.667-.67,1.333-1,2-5.12,26.96-57.21,26.49-64,1h2C1897.63,868.6,1924.53,854.392,1940,838Zm95,23c0.33,1.333.67,2.667,1,4h-1v-4ZM1448,961V947c-5.38-.883-4.92-2.307-7-6,1.08-.895,4.08-1.954,2-3-1.72-4.348-3.01-7.7-6-12v2c-0.33-.333-0.67-0.667-1-1-1.33-1-2.67-2-4-3,1.62-6.012,1.99-20,0-25,3.3-8.347,4.44-16.361,5-30,4.93-3.061,6.35-5,15-5,26.96,11.788,43.39-10.716,42,34q-1.995,9.5-4,19c-7.12,17.134-16.67,35.273-25,52-2.86-2.407-6.2-1.408-8-3-0.33-.333-0.67-0.667-1-1,2.59-1.747,1.23-2.111,3-5-0.67-.333-1.33-0.667-2-1v3Zm587-95c2.34,1.734.84-.182,2,3h-1v-1C2035.67,867.333,2035.33,866.667,2035,866Zm224,213q-354.96-.495-710-1,254.97-.495,510-1c0.33-.67.67-1.33,1-2-2.8-11.29-8.53-20.66-10-34h1c2.04,12.24,18.65,27.9,28,33,5.27,3.67,21.46,4.61,28,1-19.11-1.74-48.1-24.92-58-37-8.87-10.82-11.81-41.935-17-57-3.01-8.733-14.92-40.7-10-51,3.13,27.628,39.27,39.611,58,53q8.505,8,17,16c6.14,3.59,9.94,2.56,14,8,4.98,7.95.17,14.34,0,22-0.12,5.47,9.51,12.16,12,16q4.005,14.505,8,29c24.99,3.99,59.38,3,89,3h37q0.495-63.99,1-128h1v130Z" transform="translate(-1180)"/>
    <path id="Preenchimento_de_Cor_4" data-name="Preenchimento de Cor 4" class="cls-7" d="M1638,227c5.11-.525,10.74-3.567,13-7,0.29-1.088.18-3.519,3-6l3-1c0.67-1.667,1.33-3.333,2-5,2.1-.348,17.71-1.818,20-3,0.67-1,1.33-2,2-3,2.84,1.288,6.81,1.292,10,1,1.72-4.341,28.47-17.724,32-17v-1s-0.09-.326,3-1c1.66-.876,19.69-3.339,20-3,3.23,2.582,3.15,4.674,8,6v-1c-0.67-.333-1.33-0.667-2-1,4.28-.342,7.08-0.579,8-1,2.72-4.851,4.92-14.365,14-16,1.85,3.267,4.4,5.529,7,8q-0.495,9-1,18c4.89,0.655,8.12,2.481,10,6l-6,4c1.67,3.713-1.9,10.062-3,11l-6,1c0.33,1,.67,2,1,3,4.87,7.431,9.43,4.813,18,10h-2c-3.1,1.86-6.21,3.534-9,5v-1c-1.55-1.5-2.01-2.838-3-5h-1v4c3.69,1.54,3.08,4.032,2,6-6.73,4.736-10.6,3.561-14,1-0.13,4.125.29,4.177-2,6-0.67-.667-1.33-1.333-2-2v2c2.58,3.244,1.27,2.941,0,7h1c1.33-.667,2.67-1.333,4-2v1c-0.33.667-.67,1.333-1,2-3.8,1.426-4.39,1.773-8,5,2.27,3.767-2.05,19.591,0,27,7.34,4.726,15.7,7.729,25,11,2.92,6.055,14.26,21.893,12,25l-4,1c-6.85-5.157-16.11-6.03-22-12,0.49-1.541,1.79-4.341,1-5-0.33-1.333-.67-2.667-1-4h-1c-0.33,1.333-.67,2.667-1,4l-27,8-16-2c-20.52,4.387-50.48,6.455-72,14-1.4.49-19.57-5.141-23-6-9.32-2.336-16.62,1.136-24,2-13.75,1.61-38.48-19.864-35-36,1.84-8.554,8.39-15.709,11-25l4-1c-1.95-1.061-9.06-10.172-9-18,0.33-.667.67-1.333,1-2l15-3c2.49,4.708,6.56,4.839,10,6v-2c1.33-1.667,2.67-3.333,4-5a42.554,42.554,0,0,0,15,5C1627.16,234.923,1636.2,238.352,1638,227Zm159-19h7c1.22,4.018,4.33,9.762,2,12-2.39,2.487.15,2.106-4,3a4.413,4.413,0,0,1-2-1v2c0.67,2.666,1.33,5.334,2,8h-1c-2.15-2.221-7.77-4.452-10-9,0.67,0.333,1.33.667,2,1v-1a6.444,6.444,0,0,1,1-3l-3-1c1.32-1.805,1.06-2.614,3-4,1.88,1.912,1.79,2.06,5,3v-3h-2c0.33-.333.67-0.667,1-1l3-1c0.33-.667.67-1.333,1-2h-7v-2C1795.67,208.667,1796.33,208.333,1797,208Zm-19,3c-0.33,1-.67,2-1,3h1v-3Zm18,19h2v1C1797.33,230.667,1796.67,230.333,1796,230Zm150,34c5.1,0.244,8.48,1.225,11,4,0.33,0.333.67,0.667,1,1-10.67.578-15.73,6.393-25,9,0.33-.333.67-0.667,1-1v-2c3.26-4.535,5.19-4.611,10-7-0.33-1-.67-2-1-3Zm-505,44c0.33,1,.67,2,1,3l-4,1v-2Zm-78,1h5c8.69,11.68,37.93,30.719,31,49h-2c-7.21-9.37-35.89-25.3-39-32-2.42-4.2-.52-8.63,1-14C1360.33,311,1361.67,310,1363,309Zm50,5c11.24,1.983,19.21,12.5,27,21,0.33,3.666.67,7.334,1,11l-3,4c-5.99-2.654-27.9-26.524-29-33C1410.33,316,1411.67,315,1413,314Zm72,2,10,2c1.28,2.465,1.67,2.836,2,7-1.76,1.289-1.86,1.881-4,3-6.7,6.008-24.16,1.567-26-7l3-1C1474.85,317.786,1481.24,318.736,1485,316Zm406,0c7.17-.059,10.03,1.489,15,3,4.73,7.238,7.62,17.312,13,25,3.59,5.133,12.27,5.476,16,10,0.33,2.333.67,4.667,1,7q4.995,4.5,10,9c15.84-.306,23.05-5.932,37-2,7.59,11.111,14.88,23.229,19,38,1.35,4.836-.67,11.239,2,18,1.7,4.3,6.39,6.734,9,10,5.19,6.5,9.3,19.13,11,26,1.72,6.968-3.05,46.343-5,55q0.495,7.5,1,15c-6.58,23.3-8.59,51.293-13,70-2.15,9.109.83,16.6-1,25l-6,16c-1.88,9.034,8.6,12.755,4,19-1.33,1.667-2.67,3.333-4,5,2.35,3.4,4.87,25.327,5,32h-1c-2.54-1.882-.94-2.878-3-1-1.63,3.9.98,6.484,2,11-2.33,1.333-4.67,2.667-7,4a103.2,103.2,0,0,0-19-36q-6.495-5-13-10c-0.67-2.666-1.33-5.334-2-8-7.94-7.432-18.57-13.194-25-22q-7.995-14.5-16-29h-2c-0.33,1.333-.67,2.667-1,4h-10c-20.6-7.883-53.65-56.882-61-79-7.42-22.334,6-50.531,32-38,10.06,4.089,15.23,16.2,24,22,4.79,3.166,10.96.792,14,4l6,18c1.92-1.076,5.59-5.08,6-4h1c-3.82,12.1-4.98,25.589-5,41,4.39-.219,2.99.469,8,3,8.58-17.555,24.17-34.6,33-53,4.35-9.069,1.29-18.19,13-20,5.14-2.781,16.48-.615,21,1-6.77-8.719-21.47-13.584-25-25q0.495-6,1-12c-0.49-4.866-3.69-7.222-4-14,8-1.181,19.4.847,29-1,0.33-1,.67-2,1-3-9.22-3.105-24.05-12.63-25-24,3.96-3.637,6.69-5.373,7-13h-1c-8.33,5.028-23.17,6.807-34,9h-15q-5.505,4.5-11,9c-11.09,7.811-25.14,15.828-42,17-5.28,7.872-30.64,49.52-42,43-4.71-1.77-5.23-3.6-12-4-5.31,4.406-15.5,2.951-22,1-2.49-3.691-4.31-5.074-5-11,3.63-6.584,3.99-16.8,11-20,2.1-1.549,4.96-1.4,6-2,4.87-9.734.14-21.777,4-32,8.87-23.47,27.47-32.283,41-50,6.77-8.865,9.39-17.777,25-18,2.41,2.282,3.86,3.213,8,4,4.59-3.934,7.68-5.529,9-13l-3-3c-0.78,2.557.54,1.331-3,2-1.77-1.369-1.99-1.4-5-2-3.96,6.762-11.95,5.359-20,8-17.6,5.771-86.93,24.506-81-9,7.97-4.394,23.04-5.961,29-11,0.33,0.333.67,0.667,1,1s0.67,0.667,1,1c6.2-5.942,23.4-10.442,32-13C1865.17,316.976,1880.72,321.1,1891,316Zm-561,21h7q10.995,9.5,22,19c3.3,4.7,2.8,13.115,8,16,14.97,7.832,32.98,2.8,36,23-0.67,1.333-1.33,2.667-2,4-4.28,2.83-14.06,8.239-22,4-12.67-4.051-38.82-31.33-47-42-5.07-6.606-11.6-4.8-12-17,2.33-1.667,4.67-3.333,7-5Zm168,33c2.66,1.091,2.42,1.07,4,3,4.96,7.925-1.12,22.7-2,32-2.61,27.447,7.43,39.691,2,64h-1c-9.85-9.471-20.02-17.582-24-33-2.32-8.98,6.06-20.443,9-26C1491.21,400.15,1497.28,383.98,1498,370Zm-51,3,3,3v-1s-0.09-.326,3-1c0.26,3.152-1.33.858,1,3,3.01-2.9,4.93-3.849,11-4,7.38,6.5,13.79,12.195,14,26-6.79,8.112-9.64,8.57-22,7-4.66-5.133-18.18-16.307-13-27Zm-32,3c0.33,1,.67,2,1,3h-1v-3Zm2,1,4,1Zm5,0,8,1c4.25,7.742,10.2,13.4,8,25l-6,4c-6.99-.171-8.74-1.124-15-3-2.65-6.855-5.83-10.7-6-21l3-1a10.033,10.033,0,0,1,4,1C1419.17,380.467,1420.56,379.221,1422,377Zm30,1c0.33,1,.67,2,1,3h1C1453.03,378.73,1453.45,379.423,1452,378Zm190,23c10.28,5.857,19.04,29.411,29,38,8.77,7.56,28.48,2.1,31,16-0.33.333-.67,0.667-1,1l-29,3c-9.18,2.935-17.57,13.8-31,7-6.15-1.972-7.26-5.873-11-10C1630.01,439.021,1636.8,414.762,1642,401Zm-316,17h5v1c-2.36,1.841-1.99,2.745-2,7-0.67.333-1.33,0.667-2,1-0.67-.333-1.33-0.667-2-1-2.34-1.81-1.25-.316-2-4Zm521,2c-8.85,12.49-19.84,25.31-27,40,2.35,3.572.73,4.787,6,6,8.49-12.046,27.04-26.413,24-46h-3Zm-508,9c2.5,2.081,4.74,3.51,6,7,3.96,7.9-11.2,17.029-14,22h5c9.58,3.949,19.89-5.105,28,5,8.72,15.273,15.08,28.308,23,44q4.995,7,10,14c5.29,14.243,1.38,32.724,8,41-7.05,6.835-19.69,21.656-36,18-5.05-1.131-8.07-4.047-14-5-2.46-15.039-13.2-25.687-17-43-3.06-.278-2.68.527-3-5,1.74-2.3.22-21.657-2-29-5.95-19.739-14.37-42.305-11-65,1.98-.983,3.2-2.973,4-2h13v-2Zm121,15,3,1c12.84,4.9,32.6,21.605,35,37l-12,26c-6.26,9.95-18.64,12.8-25,23-1.95-.432-0.62-1.446-2,0-2.95,1.882-3.85,3.389-6,6-4.19-.2-7.06.761-15,2-8.06-19.6-13.87-31.6-8-54C1443.68,480.938,1453.54,457.933,1460,444Zm288,11c11.01,0.225,14.11,2.852,22,8-2.17,4.413-4.42,6.17-8,9l-6-2c-0.33-1.333-.67-2.667-1-4-3.38,1.413-1.91,1.066-7,1-0.97-2.27-.55-1.577-2-3C1746.67,461,1747.33,458,1748,455Zm-421,2c0.67,0.667,1.33,1.333,2,2C1328.33,458.333,1327.67,457.667,1327,457Zm411,15c0.67,0.667,1.33,1.333,2,2C1737.17,473.986,1738.92,472.779,1738,472Zm-40,41c10.04,14.439-27.68,21.686-34,4,3.12-1.617,6.47-2.093,12-2C1680.26,517.288,1694.03,515.306,1698,513Zm31,6h6c0.97,2.03.91,1.5,2,3l-6,17c-5.65,1.489-4.94,3.588-10,0,2.34-1.734.84,0.182,2-3-3.02-1.712-2.22-2.693-6-4-2.95-1.747-3.17,1.059-5-2l4-1c0.33,0.333.67,0.667,1,1v-2C1720.26,523.806,1724.64,522.14,1729,519Zm0,31h2v1C1730.33,550.667,1729.67,550.333,1729,550Zm0,2,4,1q1.005,5,2,10h-1v2c-0.67,1.333-1.33,2.667-2,4l-3-1c-0.66,4.53-.91,3.542-3,6-4.21-.649-4.02,1.488-11,2-2.82-6.321-7.23-5.886-8-15h2c0.33-.333.67-0.667,1-1v2c-0.33,1.333-.67,2.667-1,4,4.08,2.609,7.28,4.581,10-1,0.33-2.666.67-5.334,1-8a10.854,10.854,0,0,0,3-2c1.91,1.071,2.77,1.515,4,1C1727.67,554.667,1728.33,553.333,1729,552Zm272,145c0.33,1,.67,2,1,3h-1v-3Zm-89,86c14.38-.381,21.3,4.862,26,14h-2c-8.09-13.792-27.95-10.147-42-5v-1h1C1899.36,786.347,1906.13,786.318,1912,783Zm-631,4c0.41,0.149,30.88,24.781,31,25,0.33,2.666.67,5.334,1,8-8.81,14.906-4.31,43.456-8,63l-3,1c-8.61,4.207-21-5.476-26-9-6.85-4.826-12.23-8.181-14-18C1260.25,847.327,1275.24,794.8,1281,787Zm632,4c4.71-.089,8.26.264,11,2,38.16,14.52-3.14,84.088-30,54h3c14.2,5.094,30.79-2.9,36-15,5.46-12.68,1-30.245-9-34-1.67-.333-3.33-0.667-5-1-2.57,4.7-5.63,16.837-10,20-1.67.333-3.33,0.667-5,1v-2c4.04-4.707,6.72-11.709,7-20-1.33-.667-2.67-1.333-4-2h1C1909.39,792.632,1911.33,792.136,1913,791Zm-21,1h2c-0.33.333-.67,0.667-1,1-2.09,4.073-4.58,7.22-9,9v-1Q1888.005,796.5,1892,792Zm-7,23c0.33,0.667.67,1.333,1,2h-1v-2Zm-1,2q1.005,8.5,2,17,3.495,6,7,12h-1C1884.96,836.357,1881.5,832.214,1884,817Zm33,0c2.34,1.734.84-.182,2,3-5.95,7.482-7.34,19.225-16,24v-1c4.88-6.238,7.14-16.013,9-25C1913.67,817.667,1915.33,817.333,1917,817Zm23,22c7.1,12.151-34.39,31.982-48,16h3C1912.62,867.334,1932.07,849.227,1940,839Zm-50,15h2v1C1891.33,854.667,1890.67,854.333,1890,854Zm-630,12c4.82,3.28,7.33,13.427,11,18,6.76,8.421,24.4,12.316,29,22,2.18,5.125-.8,19.479-2,25q-0.495,13.5-1,27c-2.41,10.765-9.02,23.542-13,34q-2.505,17-5,34c-3.33.33-6.67,0.67-10,1-10.1-7.81-23.49-9.75-31-20q-4.995-10.5-10-21v5c6.84,12.62,8,24.56,16,35,7.26,9.48,23.41,13.16,27,26-2.77,4.91-1.52,17.88-2,23h2c8.94,5.49,29.68,3,43,3q68.49,0.495,137,1H1215v-3c2.36-3.04,1.36-56.64,4-70,6.53-33.047,16.8-69.128,27-99C1250.91,892.635,1251.84,876.768,1260,866Zm839,199c-11.69-.47-16.86-5.47-24-10-28.89-18.32-28.79-31.62-40-67-4.49-14.186-11.37-29.542-12-47h1v1a288.721,288.721,0,0,0,41,37c6.82,5,19.64,10.128,23,18v12c2.76,4.97,2.86,16.14,3,23l-3,3-1-1c-1.33-1-2.67-2-4-3v1C2087.27,1037.12,2097.88,1059.67,2099,1065Zm160,14q-105.99-.495-212-1,7.005-.495,14-1c0.67-1.33,1.33-2.67,2-4-2.97-3.56-5.06-9.62-6-15h1c5.16,4.89,12.95,14.94,19,18,13.21,6.68,38.08.54,55,1q62.49,0.495,125,1,0.495-64.5,1-129h1v130Zm-180-64c0.33,1,.67,2,1,3v-1c0.33-.67.67-1.33,1-2h-2Zm0,6v2h1C2079.67,1022.33,2079.33,1021.67,2079,1021Z" transform="translate(-1180)"/>
    <path id="Preenchimento_de_Cor_3" data-name="Preenchimento de Cor 3" class="cls-8" d="M1806,337c13.17-.132,16.83,4.107,27,6,0.33,1.333.67,2.667,1,4-7.36,7.722-37.64,13.878-39-4Q1800.505,340,1806,337Zm107,19c6.42,2.31,10.66,5.713,12,13-9.79,2.7-30.46,27.875-41,38-2.97,2.853-13.04,10.64-14,9-0.33-1.333-.67-2.667-1-4,5.54-2.689,5.17-8.85,10-12,0.67-.333,1.33-0.667,2-1,5.47-5.7,7.6-20.955,13-24,2.45,1.077,7.9-.6,12-3-0.43-1.953-1.45-.619,0-2C1909.12,364.62,1910.11,361.4,1913,356Zm52,19c1,2.955-.01,9.017-1,14-2.87,1.678-3.43,2.452-8,3-2.74-3.259-3.91-1.174-7-4C1954.36,385.593,1959.1,379.688,1965,375Zm-503,6,6,1c2.03,5.522,4.59,7.189,5,15-1.33,1-2.67,2-4,3l-9-1V382C1460.67,381.667,1461.33,381.333,1462,381Zm-77,3,7,1c2.74,3.836,4.52,4.35,5,11-2.32,1.2-2.28,1.494-6,2h-1C1384.62,394.832,1381.9,390.1,1385,384Zm42,1,6,6v7h-2v-1C1426.95,394.271,1425.14,390.832,1427,385Zm511,1c2.3,1.883,2.09,1.377,3,5-0.14,1.4.74,2.283-2,4v-2h-5c-0.33-.667-0.67-1.333-1-2C1934.67,389.333,1936.33,387.667,1938,386Zm-87,10c2.11,3.732-4.42,9.114-8,10-0.33-.667-0.67-1.333-1-2C1843.53,403.418,1847.45,398.392,1851,396Zm-10,11c0.33,0.667.67,1.333,1,2h-1v-2Zm69,7c3.44,2.779,4.8,4.7,5,11-7.05,8.152-14.42,16.475-29,17-0.33-1-.67-2-1-3,4.14-3.517,5.23-9.173,9-13C1898.82,421.108,1906.73,420.575,1910,414Zm-26,4,6,1v3c0.33,1.667.67,3.333,1,5-4.76,5.029-7.54,10.51-17,11C1865.87,426.336,1875.08,423.622,1884,418Zm-227,22c4.61,2.972,4.07,6.426,5,12-2.5.315-4.55,2.851-8,5v-2c1.33-1.333,2.67-2.667,4-4h-1a19.651,19.651,0,0,1-7,6v-1C1656.32,450.758,1654.12,446.408,1657,440Zm-8,2c1.33,0.667,2.67,1.333,4,2-0.67,1-1.33,2-2,3,2.63,0.848,1.12-.688,2,2-0.33.333-.67,0.667-1,1-4.71.09-2.84,0.7-6-1-0.36,3.141,1.56,1.15-1,3-1.74,1.371-2.74,1.788-6,2v-7C1643.39,446.085,1646.63,444.938,1649,442Zm9,3c1.81,0.843,1.17,1.82,2,0h-2Zm-14,3c-0.33,1-.67,2-1,3h1v-3Zm196,6c2.66,1.091,2.42,1.07,4,3,4.11,6.148.02,12.133-1,19h1c0.33-.333.67-0.667,1-1,3.47-8.126,6.35-14.291,12-20,0.67,0.333,1.33.667,2,1,4.39,1.852,5.06,3.619,5,10-5.65,6.887-7.97,16.444-19,18l-9-1q-4.005-4-8-8A43.3,43.3,0,0,1,1840,454Zm-29,7h3c3.16,5.053,3.22,13,3,22-0.33.667-.67,1.333-1,2-6.87,3.4-12.88.339-13-9Q1807.005,468.5,1811,461Zm183,50c6.51,0.733,10.91-.479,11,9a14.588,14.588,0,0,0-3,11h-1c-0.67-.333-1.33-0.667-2-1-0.87,7.369-7,31-7,31-2.26,1.938-4.64,2.166-6,5q-4.5,22.5-9,45c-6.29,4.428-11.35,13.293-15,15-1.89,1.192-1.14,4.054-6,6h-1c-4.91-9.306.09-19.824,1-27-3.95.823-4.5-.189-8-2v-1c4.49-4.162,11.26-24.863,12-29-0.67.333-1.33,0.667-2,1v-2s25.69-43.733,27-48c3.28,0.975,1.18-.078,6,0-1.67-1.667-3.33-3.333-5-5,2.2-2.041,2.12-3.93,3-5C1990.67,513,1992.33,512,1994,511Zm-8,1h2v1C1987.33,512.667,1986.67,512.333,1986,512Zm-2,8c1.46,1.417,1.01.764,2,3-0.33.333-.67,0.667-1,1-0.33-.333-0.67-0.667-1-1v-3Zm-109,15c0.33,0.667.67,1.333,1,2h-1v-2Zm3,3c1.37,1.769,1.4,1.993,2,5l-4,1v-5c0.67,0.333,1.33.667,2,1v-2Zm11,18h2v1C1890.33,556.667,1889.67,556.333,1889,556ZM1281,788c5.99,2.618,23.54,20.561,29,26-0.12,6.242-1.62,8.451-3,13h-1c-0.33-2-.67-4-1-6v1c-0.17.242-7.92,51.189-8,56-2.71,1.408-4.2,1.923-9,2-10.82-6.308-16.26-9.089-24-18C1261.58,837.875,1272.05,806.983,1281,788Zm655,36v0Zm-1,5c0.33,0.667.67,1.333,1,2h-1v-2Zm-1,2c0.33,0.667.67,1.333,1,2h-1v-2Zm-1,2c0.33,0.667.67,1.333,1,2h-1v-2Zm-1,2v3h-1C1931.33,837,1931.67,836,1932,835Zm-672,32c4.21,6.754,6.33,13.083,11,19,4.72,5.974,14.09,8.216,17,16,1.56,4.158,1.13,42.9-2,50q-4.005,5-8,10v22c-2.61,13.539-6.25,24.33-8,36h-9c-12.86-9.84-25.26-13.89-31-31V958C1236.81,931.983,1246.76,888.217,1260,867Zm766,82c7.69,5.371,31.52,25.935,34,35q-3.495,3.5-7,7c-3.09-1.523-4.19-2.182-6-5-1.87,1.638-2.54,2.758-5,4v-1c-2.65-2.235-3.02-5.1-5-8,0.62,5.164,3.06,10.723,1,15C2035.64,980.063,2027.38,966.789,2026,949Zm-801,38c6.31,8.647,6.57,23.1,12,32,5.45,8.93,16.55,14.7,19,26,0.43,8.69-9.03,18.6-11,29,38.25,10.26,103.23,4,149,4q28.5,0.495,57,1H1215v-2c5.84-5.68-.87-18.44,1-29C1219.74,1026.84,1221.78,1004.79,1225,987Zm814,9c0.33,1,.67,2,1,3h-1v-3Zm219,80c0.33,1,.67,2,1,3H2056v-1h151C2216.46,1078,2254.27,1080.06,2258,1076Z" transform="translate(-1180)"/>
    <path id="Preenchimento_de_Cor_2" data-name="Preenchimento de Cor 2" class="cls-9" d="M1281,790c7.04,3.168,18.28,17.4,21,25-7.83,6.626-3.33,23.174-9,32-0.67-.333-1.33-0.667-2-1q-2.505-5-5-10,1.005,19.5,2,39c-0.67.333-1.33,0.667-2,1-9.14-2.067-19.71-8.251-22-17C1260.44,845.39,1276.4,800.8,1281,790Zm-22,80c13.92,21.862,25.32,24.373,22,62h-1v-1l-3-7h-2c0.24,18.211-20.98,73.89-34,77-0.67-.33-1.33-0.67-2-1l-9-15c-4.59-18.3,4.45-34.663,8-46C1245.47,915.114,1249.72,891.525,1259,870Zm-34,124c5.75,8.68,10.62,23.36,11,36-10.6,4.37-10.87,17.53-16,30h-1v-6C1213.31,1042.95,1221.74,1002.07,1225,994Zm-8,83q31.5,1.005,63,2-32.49-.495-65-1C1215.67,1077.67,1216.33,1077.33,1217,1077Zm1041,0c0.33,0.67.67,1.33,1,2C2257.18,1078.61,2256.28,1077.36,2258,1077Zm-199,1q11.505,0.495,23,1Q2070.5,1078.505,2059,1078Z" transform="translate(-1180)"/>
    <path id="Preenchimento_de_Cor_1" data-name="Preenchimento de Cor 1" class="cls-10" d="M1281,795c2.21,1.419.57-.181,2,2,3.95,6.658-4.18,64.832-11,68l-6-5C1263.68,836.391,1275.43,815.279,1281,795Zm-22,86c6.62,8.759-4.34,56.568-13,72h-2c-2.32,2.326-.62,2.07-5,3v-2c-0.33.333-.67,0.667-1,1-3.01,2.786-3.98,7.21-5,12h-1v-5C1244.89,938.508,1241.67,900.063,1259,881Zm-42,197q7.5,0.495,15,1Q1224.5,1078.505,1217,1078Z" transform="translate(-1180)"/>
  </g>
</svg>
